<svg width="12" height="13" viewBox="0 0 12 13" fill="none" xmlns="http://www.w3.org/2000/svg">
<path d="M0 6.64661H2.49342C2.51651 5.76641 2.62413 4.93719 2.80362 4.18567H0.729445C0.332461 4.92665 0.0518906 5.76161 0 6.64661H0Z" fill="#FC4C02"/>
<path d="M2.49342 7.34973H0C0.0518906 8.23473 0.332461 9.06969 0.729445 9.81067H2.80364C2.62416 9.05915 2.51651 8.22993 2.49342 7.34973Z" fill="#FC4C02"/>
<path d="M5.64855 6.64661V4.18567H3.53072C3.3383 4.93042 3.22177 5.76718 3.19629 6.64661H5.64855Z" fill="#FC4C02"/>
<path d="M5.64842 3.48254V0.998169C4.87857 1.21318 4.19663 2.19683 3.74658 3.48254H5.64842Z" fill="#FC4C02"/>
<path d="M5.64842 12.9982V10.5138H3.74658C4.19663 11.7995 4.87857 12.7832 5.64842 12.9982Z" fill="#FC4C02"/>
<path d="M6.35156 0.998169V3.48254H8.2534C7.80335 2.19683 7.12141 1.21318 6.35156 0.998169Z" fill="#FC4C02"/>
<path d="M8.80383 6.64661C8.77833 5.76718 8.66182 4.93042 8.4694 4.18567H6.35156V6.64661H8.80383Z" fill="#FC4C02"/>
<path d="M5.64855 7.34973H3.19629C3.22179 8.2292 3.3383 9.06592 3.53072 9.81067H5.64855V7.34973Z" fill="#FC4C02"/>
<path d="M9.00041 3.48259H10.8227C10.095 2.48713 9.07048 1.64614 7.87695 1.25C8.33565 1.7915 8.7193 2.60579 9.00041 3.48259Z" fill="#FC4C02"/>
<path d="M2.99951 10.5138H1.17725C1.90496 11.5093 2.92943 12.3502 4.12296 12.7464C3.66427 12.2049 3.28062 11.3906 2.99951 10.5138Z" fill="#FC4C02"/>
<path d="M2.99951 3.48259C3.2806 2.60579 3.66427 1.7915 4.12294 1.25C2.92943 1.64614 1.90496 2.48713 1.17725 3.48259H2.99951Z" fill="#FC4C02"/>
<path d="M9.00038 10.5138C8.7193 11.3906 8.33562 12.2049 7.87695 12.7464C9.07046 12.3502 10.0949 11.5093 10.8227 10.5138H9.00038Z" fill="#FC4C02"/>
<path d="M6.35156 7.34973V9.81067H8.4694C8.66182 9.06592 8.77835 8.2292 8.80383 7.34973H6.35156Z" fill="#FC4C02"/>
<path d="M9.19629 4.18567C9.37575 4.93719 9.4834 5.76641 9.50648 6.64661H11.9999C11.948 5.76161 11.6674 4.92665 11.2705 4.18567H9.19629Z" fill="#FC4C02"/>
<path d="M6.35156 10.5138V12.9982C7.12141 12.7832 7.80335 11.7995 8.2534 10.5138H6.35156Z" fill="#FC4C02"/>
<path d="M11.9999 7.34973H9.50648C9.4834 8.22993 9.37577 9.05915 9.19629 9.81067H11.2705C11.6674 9.06969 11.948 8.23473 11.9999 7.34973Z" fill="#FC4C02"/>
</svg>
