<svg width="23" height="23" viewBox="0 0 23 23" fill="none" xmlns="http://www.w3.org/2000/svg">
<g clip-path="url(#clip0_2118_64)">
<path d="M11.4999 23.0007C17.8511 23.0007 22.9997 17.852 22.9997 11.5008C22.9997 5.14964 17.8511 0.000976562 11.4999 0.000976562C5.14866 0.000976562 0 5.14964 0 11.5008C0 17.852 5.14866 23.0007 11.4999 23.0007Z" fill="#41B4E6"/>
<path d="M23 11.5001C23 11.2199 22.9895 10.9422 22.9698 10.667L18.2036 5.90088L4.79642 11.1747L9.92609 16.3044L9.99338 16.5466L10.0805 16.4588L10.0808 16.4591L9.99338 16.5466L15.6678 22.221C19.9587 20.5517 23 16.3813 23 11.5001Z" fill="#0091C8"/>
<path d="M10.3832 13.1755L15.5802 17.0993L18.2036 5.90088L4.79636 11.1747L8.87603 12.526L16.3215 7.53172L10.3832 13.1755Z" fill="white"/>
<path d="M8.87601 12.526L9.99335 16.5467L10.3831 13.1755L16.3215 7.53174L8.87601 12.526Z" fill="#D2D2D7"/>
<path d="M12.0722 14.4508L9.99335 16.5467L10.3831 13.1755L12.0722 14.4508Z" fill="#B9B9BE"/>
</g>
<defs>
<clipPath id="clip0_2118_64">
<rect width="23" height="23" fill="white"/>
</clipPath>
</defs>
</svg>
