<svg width="23" height="23" viewBox="0 0 23 23" fill="none" xmlns="http://www.w3.org/2000/svg">
<g clip-path="url(#clip0_2118_38)">
<path d="M11.5 23C17.8513 23 23 17.8513 23 11.5C23 5.14873 17.8513 0 11.5 0C5.14873 0 0 5.14873 0 11.5C0 17.8513 5.14873 23 11.5 23Z" fill="#6F3FAA"/>
<path d="M16.4891 6.30901C13.6899 5.63293 10.8857 4.84213 8.01513 5.84685C6.15654 6.54382 6.15654 8.55731 6.23398 10.261C6.23398 10.7256 5.69191 11.3452 5.9242 11.8873C6.38883 13.4361 6.77605 14.9849 8.40231 15.7593C8.63465 15.9142 8.40231 16.2239 8.55721 16.4563C8.47976 16.4563 8.32487 16.5337 8.32487 16.6112C8.32487 16.9824 8.49144 17.5501 8.3808 17.9162L13.3225 22.8558C18.4027 22.0467 22.3732 17.9113 22.9319 12.7519L16.4891 6.30901Z" fill="#512D84"/>
<path d="M17.5836 8.08247L17.5798 8.06729C17.2726 6.82506 15.8873 5.49214 14.6151 5.21484L14.6008 5.21188C12.5431 4.81935 10.4567 4.81935 8.39943 5.21188L8.38465 5.21484C7.11292 5.49214 5.72757 6.82515 5.4199 8.06729L5.41649 8.08247C5.03663 9.81722 5.03663 11.5765 5.41649 13.3113L5.4199 13.3265C5.7145 14.5156 6.99661 15.7874 8.22132 16.1371V17.5237C8.22132 18.0257 8.83293 18.2721 9.18072 17.9099L10.5856 16.4496C10.8904 16.4666 11.1953 16.4761 11.5001 16.4761C12.5358 16.4761 13.5721 16.3781 14.6007 16.1819L14.615 16.179C15.8872 15.9017 17.2725 14.5687 17.5798 13.3265L17.5836 13.3113C17.9634 11.5765 17.9634 9.81731 17.5836 8.08247ZM16.4718 13.0598C16.2666 13.8702 15.2148 14.8777 14.3791 15.0639C13.285 15.2719 12.1822 15.3608 11.0806 15.3303C11.0586 15.3297 11.0376 15.3383 11.0223 15.354C10.866 15.5144 9.99654 16.407 9.99654 16.407L8.90548 17.5268C8.8257 17.61 8.68554 17.5534 8.68554 17.4386V15.1415C8.68554 15.1035 8.65845 15.0713 8.62117 15.064C8.62094 15.0639 8.62076 15.0639 8.62054 15.0638C7.78481 14.8777 6.73337 13.8702 6.52785 13.0597C6.18595 11.4917 6.18595 9.90208 6.52785 8.33403C6.73337 7.5236 7.78481 6.51609 8.62054 6.32994C10.5313 5.96652 12.4687 5.96652 14.3791 6.32994C15.2153 6.51609 16.2666 7.5236 16.4718 8.33403C16.8141 9.90212 16.8141 11.4917 16.4718 13.0598Z" fill="white"/>
<path d="M13.3179 14.1202C13.1895 14.0812 13.067 14.055 12.9533 14.0078C11.7749 13.519 10.6905 12.8883 9.83155 11.9215C9.34307 11.3717 8.96074 10.7511 8.63757 10.0942C8.4843 9.78272 8.35515 9.45905 8.22348 9.13741C8.10345 8.84416 8.28026 8.54121 8.46642 8.32019C8.64112 8.11279 8.86595 7.95413 9.10943 7.8371C9.29945 7.74582 9.48686 7.79847 9.62567 7.95952C9.92566 8.30775 10.2013 8.67377 10.4244 9.07744C10.5616 9.32572 10.524 9.62922 10.2752 9.79817C10.2148 9.83923 10.1597 9.88747 10.1034 9.93383C10.054 9.97449 10.0076 10.0155 9.97368 10.0706C9.91183 10.1712 9.90886 10.2901 9.94866 10.3995C10.2553 11.2423 10.7723 11.8977 11.6206 12.2508C11.7564 12.3072 11.8927 12.373 12.0491 12.3548C12.311 12.3242 12.3958 12.0369 12.5793 11.8868C12.7587 11.7401 12.988 11.7382 13.1812 11.8604C13.3745 11.9828 13.5618 12.1141 13.7481 12.2468C13.9309 12.3771 14.1129 12.5044 14.2815 12.653C14.4436 12.7958 14.4995 12.9831 14.4081 13.1769C14.241 13.5318 13.9978 13.827 13.647 14.0155C13.5479 14.0686 13.4296 14.0858 13.3179 14.1202C13.1895 14.0812 13.4296 14.0858 13.3179 14.1202Z" fill="white"/>
<path d="M11.5032 7.43127C13.0444 7.47449 14.3103 8.49731 14.5816 10.0211C14.6278 10.2807 14.6443 10.5461 14.6649 10.8097C14.6735 10.9205 14.6107 11.0258 14.4911 11.0273C14.3676 11.0287 14.312 10.9253 14.304 10.8146C14.2881 10.5953 14.2771 10.375 14.2469 10.1575C14.0873 9.00938 13.1718 8.05951 12.029 7.85569C11.857 7.82501 11.6811 7.81697 11.5068 7.79869C11.3967 7.78714 11.2525 7.7805 11.2281 7.64357C11.2077 7.5288 11.3046 7.43743 11.4139 7.43154C11.4435 7.42979 11.4733 7.43118 11.5032 7.43127C13.0445 7.47449 11.4733 7.43118 11.5032 7.43127Z" fill="white"/>
<path d="M13.8454 10.4675C13.8429 10.4868 13.8416 10.532 13.8303 10.5746C13.7894 10.7293 13.5547 10.7487 13.5008 10.5926C13.4847 10.5463 13.4823 10.4935 13.4822 10.4437C13.4817 10.1173 13.4108 9.79114 13.2461 9.5071C13.0769 9.21515 12.8183 8.96983 12.5152 8.82127C12.3318 8.73152 12.1336 8.67568 11.9326 8.64249C11.8448 8.62793 11.756 8.61917 11.6677 8.60686C11.5608 8.59199 11.5036 8.52385 11.5087 8.41846C11.5135 8.31972 11.5856 8.24861 11.6933 8.25477C12.0469 8.2748 12.3886 8.35135 12.7031 8.51783C13.3425 8.85649 13.7078 9.39097 13.8145 10.1047C13.8193 10.1371 13.827 10.1691 13.8295 10.2015C13.8355 10.2816 13.8393 10.3618 13.8454 10.4675C13.8429 10.4867 13.8393 10.3618 13.8454 10.4675Z" fill="white"/>
<path d="M12.8868 10.4302C12.7579 10.4325 12.6889 10.3611 12.6756 10.2429C12.6664 10.1605 12.659 10.077 12.6393 9.99675C12.6006 9.83876 12.5166 9.6924 12.3838 9.5956C12.3211 9.54991 12.2499 9.51662 12.1755 9.49506C12.0809 9.4677 11.9827 9.47525 11.8884 9.45216C11.7859 9.42705 11.7292 9.34404 11.7453 9.24795C11.76 9.16044 11.8451 9.09216 11.9407 9.09912C12.5382 9.14225 12.9653 9.45117 13.0263 10.1546C13.0306 10.2043 13.0357 10.2567 13.0247 10.3043C13.0057 10.3855 12.9455 10.4262 12.8868 10.4302C12.7579 10.4324 12.9455 10.4262 12.8868 10.4302Z" fill="white"/>
<path d="M17.5836 8.08247L17.5799 8.06729C17.4076 7.37096 16.8965 6.64619 16.2566 6.09473L15.3914 6.86145C15.9059 7.27137 16.3466 7.83922 16.4719 8.33399C16.8142 9.90208 16.8142 11.4916 16.4719 13.0598C16.2667 13.8702 15.2149 14.8777 14.3792 15.0639C13.2851 15.272 12.1823 15.3609 11.0807 15.3304C11.0587 15.3297 11.0377 15.3383 11.0224 15.354C10.8661 15.5144 9.99665 16.407 9.99665 16.407L8.90559 17.5269C8.82581 17.61 8.68565 17.5535 8.68565 17.4386V15.1415C8.68565 15.1035 8.65856 15.0713 8.62128 15.064C8.62105 15.064 8.62087 15.0639 8.62065 15.0639C8.14569 14.9581 7.60128 14.5869 7.18189 14.1375L6.32703 14.8951C6.86092 15.4759 7.54953 15.9454 8.22129 16.1372V17.5238C8.22129 18.0258 8.8329 18.2722 9.18069 17.91L10.5856 16.4497C10.8904 16.4667 11.1952 16.4762 11.5001 16.4762C12.5358 16.4762 13.5721 16.3782 14.6007 16.182L14.615 16.1791C15.8872 15.9018 17.2725 14.5689 17.5798 13.3267L17.5836 13.3115C17.9635 11.5765 17.9635 9.81731 17.5836 8.08247Z" fill="#D1D1D1"/>
<path d="M13.318 14.1201C13.4297 14.0857 13.1895 14.0811 13.318 14.1201V14.1201Z" fill="white"/>
<path d="M14.2816 12.6529C14.113 12.5045 13.9309 12.377 13.7482 12.2467C13.5619 12.114 13.3746 11.9827 13.1813 11.8604C12.9881 11.7381 12.7589 11.74 12.5794 11.8867C12.3959 12.0368 12.3111 12.3241 12.0492 12.3547C11.8928 12.3729 11.7565 12.3071 11.6207 12.2507C11.0988 12.0335 10.7027 11.7015 10.4034 11.2822L9.76733 11.846C9.78894 11.871 9.80956 11.8967 9.83153 11.9214C10.6905 12.8882 11.775 13.5189 12.9532 14.0078C13.0669 14.0549 13.1894 14.0812 13.3179 14.1201C13.1894 14.0811 13.4297 14.0858 13.3179 14.1201C13.4297 14.0858 13.5479 14.0685 13.6471 14.0154C13.9979 13.8269 14.2411 13.5316 14.4082 13.1768C14.4996 12.9831 14.4437 12.7957 14.2816 12.6529Z" fill="#D1D1D1"/>
<path d="M11.5074 7.43255C11.506 7.43255 11.5047 7.43241 11.5033 7.43241C11.502 7.43232 11.5037 7.43241 11.5074 7.43255Z" fill="white"/>
<path d="M11.504 7.43115C11.5053 7.43115 11.5066 7.43129 11.5079 7.43129C11.5934 7.43434 12.9846 7.47265 11.504 7.43115Z" fill="white"/>
<path d="M13.714 8.34814L13.4428 8.58852C13.869 9.00315 14.1629 9.55268 14.2469 10.1574C14.2771 10.3749 14.2881 10.5952 14.304 10.8145C14.312 10.9253 14.3676 11.0287 14.4912 11.0272C14.6108 11.0258 14.6736 10.9205 14.6649 10.8096C14.6443 10.5461 14.6279 10.2806 14.5817 10.021C14.4629 9.35404 14.1536 8.78303 13.714 8.34814Z" fill="#D1D1D1"/>
<path d="M13.8144 10.1048C13.7367 9.58468 13.521 9.16026 13.1626 8.83691L12.8922 9.07657C13.032 9.20069 13.153 9.34646 13.2461 9.50724C13.4108 9.79128 13.4817 10.1174 13.4822 10.4438C13.4823 10.4937 13.4847 10.5464 13.5008 10.5928C13.5548 10.749 13.7894 10.7297 13.8303 10.5749C13.8416 10.5322 13.8429 10.4869 13.8454 10.4678C13.8429 10.487 13.8392 10.3621 13.8454 10.4678C13.8392 10.3621 13.8355 10.2818 13.8294 10.2017C13.827 10.1691 13.8192 10.1371 13.8144 10.1048Z" fill="#D1D1D1"/>
<path d="M13.8455 10.4676C13.8394 10.3618 13.8429 10.4868 13.8455 10.4676V10.4676Z" fill="white"/>
<path d="M12.8869 10.4303C12.8889 10.4302 12.8908 10.4292 12.8927 10.429C12.8873 10.429 12.8789 10.4291 12.8704 10.4294C12.8759 10.4295 12.881 10.4304 12.8869 10.4303Z" fill="white"/>
<path d="M12.8869 10.4299C12.8811 10.43 12.8759 10.4291 12.8704 10.429C12.8425 10.4297 12.8137 10.4312 12.8869 10.4299Z" fill="white"/>
<path d="M12.8927 10.429C12.8907 10.4292 12.8888 10.4302 12.8868 10.4303C12.9019 10.4293 12.9006 10.429 12.8927 10.429Z" fill="white"/>
<path d="M12.6146 9.32251L12.3394 9.56653C12.3545 9.57573 12.3694 9.58535 12.3838 9.59581C12.5167 9.69262 12.6007 9.83898 12.6394 9.99697C12.6591 10.0772 12.6663 10.1607 12.6756 10.2431C12.6884 10.356 12.7525 10.4254 12.8704 10.4295C12.879 10.4293 12.8874 10.4291 12.8928 10.429C12.9496 10.4227 13.0065 10.3829 13.0247 10.3044C13.0357 10.2569 13.0307 10.2044 13.0263 10.1548C12.9921 9.76149 12.8434 9.49164 12.6146 9.32251Z" fill="#D1D1D1"/>
</g>
<defs>
<clipPath id="clip0_2118_38">
<rect width="23" height="23" fill="white"/>
</clipPath>
</defs>
</svg>
