<svg width="23" height="23" viewBox="0 0 23 23" fill="none" xmlns="http://www.w3.org/2000/svg">
<g clip-path="url(#clip0_2118_72)">
<path d="M11.5 23C17.8513 23 23 17.8513 23 11.5C23 5.14873 17.8513 0 11.5 0C5.14873 0 0 5.14873 0 11.5C0 17.8513 5.14873 23 11.5 23Z" fill="#ADDC51"/>
<path d="M7.02966 6.9795C4.95831 9.05085 4.61318 12.2076 6.02606 14.6456L5.142 17.8372L10.2352 22.9305C10.6507 22.9759 11.0725 23 11.5 23C17.0785 23 21.7287 19.0278 22.7778 13.7576L15.9998 6.9795C13.5229 4.50274 9.50796 4.50116 7.02966 6.9795Z" fill="#94C435"/>
<path d="M15.9998 6.97952C13.5229 4.50271 9.50796 4.50118 7.02966 6.97952C4.95831 9.05087 4.61318 12.2076 6.02606 14.6456L5.142 17.8373L8.3337 16.9532C10.7852 18.374 13.9387 18.0106 15.9998 15.9496C18.4762 13.4732 18.4785 9.45822 15.9998 6.97952Z" fill="#5A915A"/>
<path d="M14.9916 13.7288C14.9892 13.5394 14.8122 13.3853 14.5952 13.3587C14.0639 13.2945 13.5617 13.1533 13.0987 12.9493C12.9305 12.8756 12.7366 12.9049 12.6198 13.0281C12.5143 13.1413 12.4057 13.2524 12.2941 13.3612C11.14 12.7807 10.1987 11.8393 9.61818 10.6853C9.72703 10.5736 9.83812 10.465 9.95128 10.3595C10.0744 10.2427 10.1038 10.0488 10.0301 9.88061C9.82608 9.4176 9.68489 8.91542 9.62065 8.38408C9.59402 8.16725 9.44011 7.99012 9.2509 7.98774C9.11663 7.98774 8.95289 7.98774 8.78008 7.98774C8.09331 7.94888 7.49926 8.88743 7.7966 9.96839C8.49105 12.4968 10.4826 14.4883 13.011 15.1828C14.0919 15.4801 15.0306 14.8858 14.9916 14.1991C14.9916 14.0423 14.9916 13.8855 14.9916 13.7288Z" fill="white"/>
</g>
<defs>
<clipPath id="clip0_2118_72">
<rect width="23" height="23" fill="white"/>
</clipPath>
</defs>
</svg>
