<svg width="16" height="17" viewBox="0 0 16 17" fill="none" xmlns="http://www.w3.org/2000/svg">
<path d="M11.8088 8.1172C14.1235 8.1172 16 9.99376 16 12.3086C16 14.6234 14.1235 16.5 11.8088 16.5C9.49409 16.5 7.61763 14.6234 7.61763 12.3086C7.61763 9.99376 9.49409 8.1172 11.8088 8.1172ZM7.6346 9.64082C7.4085 9.99389 7.22597 10.3775 7.09459 10.7842L1.71372 10.7844C1.39855 10.7844 1.14305 11.0399 1.14305 11.3551V11.7953C1.14305 12.2035 1.28868 12.5984 1.55376 12.9088C2.50882 14.0273 4.00689 14.5956 6.09357 14.5956C6.54807 14.5956 6.97471 14.5687 7.37396 14.5149C7.56081 14.8921 7.79517 15.2415 8.06857 15.5562C7.46237 15.6783 6.8033 15.7387 6.09357 15.7387C3.69632 15.7387 1.87809 15.0489 0.684519 13.6511C0.242722 13.1337 0 12.4757 0 11.7953V11.3551C0 10.4086 0.767258 9.64129 1.71372 9.64129L7.6346 9.64082ZM11.8088 9.64134L11.7403 9.64748C11.5848 9.67571 11.4622 9.79835 11.4339 9.95388L11.4278 10.0224L11.427 11.9276H9.52569L9.45721 11.9337C9.30168 11.9619 9.17905 12.0846 9.15082 12.2401L9.14468 12.3086L9.15082 12.3771C9.17905 12.5326 9.30168 12.6553 9.45721 12.6835L9.52569 12.6896H11.427L11.4278 14.5948L11.4339 14.6633C11.4622 14.8188 11.5848 14.9415 11.7403 14.9697L11.8088 14.9758L11.8773 14.9697C12.0328 14.9415 12.1555 14.8188 12.1837 14.6633L12.1898 14.5948L12.1891 12.6896H14.0979L14.1664 12.6835C14.3219 12.6553 14.4445 12.5326 14.4728 12.3771L14.4789 12.3086L14.4728 12.2401C14.4445 12.0846 14.3219 11.9619 14.1664 11.9337L14.0979 11.9276H12.1891L12.1898 10.0224L12.1837 9.95388C12.1555 9.79835 12.0328 9.67571 11.8773 9.64748L11.8088 9.64134ZM6.09357 0.5C8.19786 0.5 9.90373 2.20596 9.90373 4.31036C9.90373 6.41477 8.19786 8.12073 6.09357 8.12073C3.98927 8.12073 2.2834 6.41477 2.2834 4.31036C2.2834 2.20596 3.98927 0.5 6.09357 0.5ZM6.09357 1.64311C4.62056 1.64311 3.42645 2.83728 3.42645 4.31036C3.42645 5.78345 4.62056 6.97762 6.09357 6.97762C7.56658 6.97762 8.76068 5.78345 8.76068 4.31036C8.76068 2.83728 7.56658 1.64311 6.09357 1.64311Z" fill="#FC4C02"/>
</svg>
