<svg width="18" height="18" viewBox="0 0 18 18" fill="none" xmlns="http://www.w3.org/2000/svg">
<path d="M15.3626 2.63459C11.8474 -0.879592 6.1489 -0.878748 2.63471 2.63652C-0.87947 6.1518 -0.878626 11.8503 2.63665 15.3645C6.15192 18.8786 11.8504 18.8778 15.3646 15.3625C17.0523 13.6743 18.0002 11.3847 17.9996 8.99759C17.9992 6.61083 17.0506 4.32202 15.3626 2.63459ZM13.6298 12.5364C13.6294 12.5368 13.6291 12.5372 13.6286 12.5376V12.5346L13.1726 12.9876C12.5829 13.5848 11.724 13.8305 10.9076 13.6356C10.0851 13.4155 9.30326 13.065 8.59162 12.5976C7.93047 12.1751 7.31777 11.6811 6.76462 11.1246C6.25567 10.6194 5.79842 10.0646 5.39961 9.46861C4.96339 8.82729 4.61812 8.12867 4.37361 7.3926C4.09331 6.5279 4.32559 5.57907 4.97362 4.94162L5.50761 4.40763C5.65608 4.25849 5.89732 4.25797 6.04642 4.40643C6.0468 4.40682 6.04722 4.4072 6.04761 4.40763L7.7336 6.09362C7.88273 6.24208 7.88326 6.48332 7.7348 6.63242C7.73441 6.63281 7.73402 6.63319 7.7336 6.63362L6.7436 7.62362C6.45954 7.90458 6.42382 8.35107 6.65961 8.67363C7.01768 9.16504 7.41392 9.62745 7.84462 10.0566C8.32482 10.5389 8.84686 10.9776 9.40461 11.3676C9.72689 11.5924 10.1638 11.5545 10.4426 11.2776L11.3996 10.3056C11.5481 10.1565 11.7893 10.156 11.9384 10.3045C11.9388 10.3048 11.9392 10.3052 11.9396 10.3056L13.6286 11.9976C13.7778 12.1461 13.7783 12.3873 13.6298 12.5364Z" fill="#FC4C02"/>
</svg>
