<svg width="40" height="30" viewBox="0 0 40 30" fill="none" xmlns="http://www.w3.org/2000/svg">
<path d="M7.97919 0.43934C8.56497 1.02513 8.56497 1.97487 7.97919 2.56066C1.34027 9.19957 1.34027 19.9634 7.97919 26.6023C8.56497 27.1881 8.56497 28.1378 7.97919 28.7236C7.3934 29.3094 6.44365 29.3094 5.85786 28.7236C-1.95262 20.9131 -1.95262 8.24983 5.85786 0.43934C6.44365 -0.146447 7.3934 -0.146447 7.97919 0.43934ZM34.1421 0.43934C41.9526 8.24983 41.9526 20.9131 34.1421 28.7236C33.5564 29.3094 32.6066 29.3094 32.0208 28.7236C31.435 28.1378 31.435 27.1881 32.0208 26.6023C38.6597 19.9634 38.6597 9.19957 32.0208 2.56066C31.435 1.97487 31.435 1.02513 32.0208 0.43934C32.6066 -0.146447 33.5564 -0.146447 34.1421 0.43934ZM13.636 6.0962C14.2218 6.68198 14.2218 7.63173 13.636 8.21752C10.1213 11.7322 10.1213 17.4307 13.636 20.9454C14.2218 21.5312 14.2218 22.481 13.636 23.0668C13.0503 23.6525 12.1005 23.6525 11.5147 23.0668C6.82843 18.3805 6.82843 10.7825 11.5147 6.0962C12.1005 5.51041 13.0503 5.51041 13.636 6.0962ZM28.4853 6.0962C33.1716 10.7825 33.1716 18.3805 28.4853 23.0668C27.8995 23.6525 26.9497 23.6525 26.364 23.0668C25.7782 22.481 25.7782 21.5312 26.364 20.9454C29.8787 17.4307 29.8787 11.7322 26.364 8.21752C25.7782 7.63173 25.7782 6.68198 26.364 6.0962C26.9497 5.51041 27.8995 5.51041 28.4853 6.0962ZM20 11.5815C21.6569 11.5815 23 12.9246 23 14.5815C23 16.2383 21.6569 17.5815 20 17.5815C18.3431 17.5815 17 16.2383 17 14.5815C17 12.9246 18.3431 11.5815 20 11.5815Z" fill="#FC4C02"/>
</svg>
