<svg width="40" height="37" viewBox="0 0 40 37" fill="none" xmlns="http://www.w3.org/2000/svg">
<path d="M3.33475 0H6.65283C8.40994 0 9.85105 1.36124 9.97843 3.08599L9.98758 3.33475V33.3475C9.98758 35.1046 8.62634 36.5457 6.90159 36.6731L6.65283 36.6823H3.33475C1.57764 36.6823 0.136532 35.321 0.00915261 33.5963L0 33.3475V3.33475C0 1.57764 1.36124 0.136532 3.08599 0.00915241L3.33475 0H6.65283H3.33475ZM14.998 0H18.3245C20.0816 0 21.5227 1.36124 21.6501 3.08599L21.6592 3.33475V33.3475C21.6592 35.1046 20.298 36.5457 18.5732 36.6731L18.3245 36.6823H14.998C13.2393 36.6823 11.7997 35.321 11.6724 33.5963L11.6633 33.3475V3.33475C11.6633 1.57764 13.023 0.136532 14.7491 0.00915241L14.998 0H18.3245H14.998ZM30.2305 3.37877C31.6366 3.37877 32.9245 4.2753 33.3867 5.64576L33.4636 5.90818L39.8996 31.7242C40.3262 33.4287 39.355 35.1561 37.7112 35.6983L37.4719 35.7675L34.1989 36.5829C33.9288 36.6496 33.657 36.6829 33.3902 36.6829C31.9825 36.6829 30.696 35.7849 30.234 34.4157L30.1572 34.1535L23.7194 8.33754C23.2945 6.62977 24.2657 4.90377 25.9095 4.36319L26.1488 4.29416L29.4218 3.47881C29.692 3.41212 29.9637 3.37877 30.2305 3.37877ZM6.65283 2.50106H3.33475C2.92717 2.50106 2.58546 2.79749 2.51456 3.1854L2.50106 3.33475V33.3475C2.50106 33.7551 2.79749 34.0968 3.1854 34.1677L3.33475 34.1812H6.65283C7.06189 34.1812 7.40245 33.8848 7.47308 33.4969L7.48652 33.3475V3.33475C7.48652 2.92717 7.19141 2.58546 6.80262 2.51456L6.65283 2.50106ZM18.3245 2.50106H14.998C14.589 2.50106 14.2484 2.79749 14.1778 3.1854L14.1644 3.33475V33.3475C14.1644 33.7551 14.4595 34.0968 14.8482 34.1677L14.998 34.1812H18.3245C18.7335 34.1812 19.0741 33.8848 19.1447 33.4969L19.1581 33.3475V3.33475C19.1581 2.92717 18.863 2.58546 18.4743 2.51456L18.3245 2.50106ZM30.2305 5.87983L30.128 5.88609L30.0254 5.90484L26.754 6.72019C26.3568 6.81949 26.098 7.18887 26.1238 7.5824L26.1471 7.73062L32.5832 33.5483C32.6916 33.9818 33.0784 34.1819 33.3902 34.1819L33.4925 34.1754L33.5936 34.1552L36.8667 33.3398C37.2639 33.2405 37.5228 32.8725 37.4969 32.4781L37.4736 32.3294L31.0359 6.51177C30.9275 6.07658 30.5423 5.87983 30.2305 5.87983Z" fill="#FC4C02"/>
</svg>
