<svg width="40" height="36" viewBox="0 0 40 36" fill="none" xmlns="http://www.w3.org/2000/svg">
<path d="M25.4167 23.3333C27.4877 23.3333 29.1667 25.0123 29.1667 27.0833V29.5866L29.1535 29.7674C28.6356 33.3111 25.4525 35.0151 20.1113 35.0151C14.7894 35.0151 11.5555 33.3306 10.8574 29.8276L10.8333 29.5833V27.0833C10.8333 25.0123 12.5123 23.3333 14.5833 23.3333H25.4167ZM25.4167 25.8333H14.5833C13.893 25.8333 13.3333 26.393 13.3333 27.0833V29.4506C13.7997 31.4513 15.9177 32.5151 20.1113 32.5151C24.3048 32.5151 26.3277 31.4628 26.6667 29.4886V27.0833C26.6667 26.393 26.107 25.8333 25.4167 25.8333ZM27.0726 13.3315L36.25 13.3333C38.3211 13.3333 40 15.0123 40 17.0833V19.5866L39.9869 19.7674C39.4689 23.3111 36.2859 25.0151 30.9446 25.0151L30.4199 25.0095C29.9282 23.8201 29.0252 22.8464 27.8889 22.2625C28.7469 22.4307 29.7635 22.5151 30.9446 22.5151C35.1381 22.5151 37.1611 21.4628 37.5 19.4886V17.0833C37.5 16.393 36.9404 15.8333 36.25 15.8333H27.5C27.5 14.9561 27.3494 14.114 27.0726 13.3315ZM3.75 13.3333L12.9274 13.3315C12.6968 13.9836 12.5537 14.677 12.5124 15.3977L12.5 15.8333H3.75C3.05964 15.8333 2.5 16.393 2.5 17.0833V19.4506C2.96632 21.4513 5.08438 22.5151 9.27798 22.5151C10.3148 22.5151 11.2189 22.4507 11.9977 22.3241C10.9131 22.9131 10.0533 23.8624 9.57725 25.011L9.27798 25.0151C3.95602 25.0151 0.722169 23.3306 0.0241045 19.8276L0 19.5833V17.0833C0 15.0123 1.67893 13.3333 3.75 13.3333ZM20 10C23.2217 10 25.8333 12.6117 25.8333 15.8333C25.8333 19.055 23.2217 21.6667 20 21.6667C16.7783 21.6667 14.1667 19.055 14.1667 15.8333C14.1667 12.6117 16.7783 10 20 10ZM20 12.5C18.159 12.5 16.6667 13.9924 16.6667 15.8333C16.6667 17.6743 18.159 19.1667 20 19.1667C21.8409 19.1667 23.3333 17.6743 23.3333 15.8333C23.3333 13.9924 21.8409 12.5 20 12.5ZM30.8333 0C34.055 0 36.6667 2.61167 36.6667 5.83333C36.6667 9.05499 34.055 11.6667 30.8333 11.6667C27.6117 11.6667 25 9.05499 25 5.83333C25 2.61167 27.6117 0 30.8333 0ZM9.16667 0C12.3883 0 15 2.61167 15 5.83333C15 9.05499 12.3883 11.6667 9.16667 11.6667C5.94501 11.6667 3.33333 9.05499 3.33333 5.83333C3.33333 2.61167 5.94501 0 9.16667 0ZM30.8333 2.5C28.9924 2.5 27.5 3.99238 27.5 5.83333C27.5 7.67428 28.9924 9.16667 30.8333 9.16667C32.6743 9.16667 34.1667 7.67428 34.1667 5.83333C34.1667 3.99238 32.6743 2.5 30.8333 2.5ZM9.16667 2.5C7.32572 2.5 5.83333 3.99238 5.83333 5.83333C5.83333 7.67428 7.32572 9.16667 9.16667 9.16667C11.0076 9.16667 12.5 7.67428 12.5 5.83333C12.5 3.99238 11.0076 2.5 9.16667 2.5Z" fill="#FC4C02"/>
</svg>
