<svg width="16" height="14" viewBox="0 0 16 14" fill="none" xmlns="http://www.w3.org/2000/svg">
<path d="M14.6745 1.70435C12.9346 0.0517371 10.1025 0.0517371 8.36194 1.70398L8.00003 2.04708L7.6385 1.70413C5.89778 0.0516746 3.06606 0.0518618 1.32534 1.70413C0.470656 2.51553 0 3.59177 0 4.73429C0 5.87718 0.470656 6.95323 1.32547 7.76498L7.61356 13.7234C7.72172 13.8262 7.86097 13.8773 8 13.8773C8.13903 13.8773 8.27809 13.826 8.38644 13.7233L14.6745 7.76498C15.5292 6.95342 16 5.87721 16 4.73448C16 3.59177 15.5292 2.51572 14.6745 1.70435ZM13.9009 6.95249L8 12.5443L2.09928 6.95267C1.46956 6.35499 1.12281 5.56715 1.12281 4.73448C1.12281 3.90181 1.46956 3.11396 2.09928 2.51628C2.75612 1.89243 3.61881 1.58071 4.48169 1.58071C5.34475 1.58071 6.20781 1.89281 6.86466 2.51665L7.61319 3.22624C7.82987 3.43189 8.16991 3.43189 8.38663 3.22624L9.13534 2.51628C10.4492 1.26877 12.5868 1.26877 13.9007 2.51628C14.5302 3.11399 14.8772 3.90181 14.8772 4.73448C14.8772 5.56715 14.5303 6.35481 13.9009 6.95249Z" fill="#ACACAC"/>
</svg>
