<svg width="12" height="14" viewBox="0 0 12 14" fill="none" xmlns="http://www.w3.org/2000/svg">
<path d="M2.84211 1.89286C2.84211 1.63644 3.05418 1.42857 3.31579 1.42857H6.94737V4.21429C6.94737 4.89807 7.5129 5.45238 8.21053 5.45238H11.0526V11.4881C11.0526 11.7445 10.8406 11.9524 10.5789 11.9524H7.57895V12.881H10.5789C11.3638 12.881 12 12.2573 12 11.4881V5.24451C12 4.9572 11.8836 4.68165 11.6763 4.47848L7.94098 0.817301C7.73371 0.614137 7.45258 0.5 7.15944 0.5H3.31579C2.53096 0.5 1.89474 1.1236 1.89474 1.89286V6.69048H2.84211V1.89286ZM7.89474 4.21429V2.08517L10.3827 4.52381H8.21053C8.03612 4.52381 7.89474 4.38523 7.89474 4.21429Z" fill="#898989"/>
<path d="M2.21053 7.77381C2.21053 8.03023 1.99845 8.2381 1.73684 8.2381H0.947368V12.5714H1.73684C1.99845 12.5714 2.21053 12.7793 2.21053 13.0357C2.21053 13.2921 1.99845 13.5 1.73684 13.5H0.947368C0.424151 13.5 0 13.0843 0 12.5714V8.2381C0 7.72526 0.424151 7.30952 0.947368 7.30952H1.73684C1.99845 7.30952 2.21053 7.51739 2.21053 7.77381Z" fill="#898989"/>
<path d="M5.21053 8.2381C4.94892 8.2381 4.73684 8.03023 4.73684 7.77381C4.73684 7.51739 4.94892 7.30952 5.21053 7.30952H6C6.52322 7.30952 6.94737 7.72526 6.94737 8.2381V12.5714C6.94737 13.0843 6.52322 13.5 6 13.5H5.21053C4.94892 13.5 4.73684 13.2921 4.73684 13.0357C4.73684 12.7793 4.94892 12.5714 5.21053 12.5714H6V8.2381H5.21053Z" fill="#898989"/>
<path d="M3.47368 9.63095C3.73529 9.63095 3.94737 9.83882 3.94737 10.0952V12.2619C3.94737 12.5183 3.73529 12.7262 3.47368 12.7262C3.21208 12.7262 3 12.5183 3 12.2619V10.0952C3 9.83882 3.21208 9.63095 3.47368 9.63095Z" fill="#898989"/>
<path d="M3.47368 9.16667C3.73529 9.16667 3.94737 8.9588 3.94737 8.70238C3.94737 8.44596 3.73529 8.2381 3.47368 8.2381C3.21208 8.2381 3 8.44596 3 8.70238C3 8.9588 3.21208 9.16667 3.47368 9.16667Z" fill="#898989"/>
</svg>
