<svg width="40" height="40" viewBox="0 0 40 40" fill="none" xmlns="http://www.w3.org/2000/svg">
<path d="M36.5 0C38.433 0 40 1.567 40 3.5V9.58542C40 11.6337 38.8617 13.5124 37.0461 14.4606L24.4825 21.0213C27.7546 22.6648 30 26.0516 30 29.9628C30 35.4856 25.5228 39.9628 20 39.9628C14.4772 39.9628 10 35.4856 10 29.9628C10 26.0516 12.2454 22.6648 15.5175 21.0213L2.95387 14.4606C1.13826 13.5124 0 11.6337 0 9.58542V3.5C0 1.567 1.567 0 3.5 0H36.5ZM20 22.9628C16.134 22.9628 13 26.0968 13 29.9628C13 33.8288 16.134 36.9628 20 36.9628C23.866 36.9628 27 33.8288 27 29.9628C27 26.0968 23.866 22.9628 20 22.9628ZM27 2.998H13V16.322L19.7685 19.8578C19.9136 19.9336 20.0864 19.9336 20.2315 19.8578L27 16.32V2.998ZM10 2.998L3.5 3C3.22386 3 3 3.22386 3 3.5V9.58542C3 10.5165 3.51739 11.3704 4.34267 11.8014L10 14.754V2.998ZM36.5 3L30 2.998V14.754L35.6573 11.8014C36.4826 11.3704 37 10.5165 37 9.58542V3.5C37 3.22386 36.7761 3 36.5 3Z" fill="#FC4C02"/>
</svg>
