<svg width="40" height="39" viewBox="0 0 40 39" fill="none" xmlns="http://www.w3.org/2000/svg">
<path fill-rule="evenodd" clip-rule="evenodd" d="M11.6667 0C11.303 0 10.9574 0.158379 10.7199 0.433825L0.303239 12.5172C-0.0877651 12.9707 -0.102168 13.6379 0.268898 14.1079L19.0189 37.8579C19.2559 38.1582 19.6174 38.3333 20 38.3333C20.3826 38.3333 20.7441 38.1582 20.9811 37.8579L39.7311 14.1079C40.1022 13.6379 40.0878 12.9707 39.6968 12.5172L29.2801 0.433825C29.0426 0.158379 28.697 0 28.3333 0H11.6667ZM3.61875 12.5L12.2394 2.5H15.2371L11.2371 12.5H3.61875ZM13.9297 12.5L17.9297 2.5H22.0703L26.0703 12.5H13.9297ZM26.1725 15H13.8275L20 33.1926L26.1725 15ZM23.5149 30.6138L28.8125 15H35.8416L23.5149 30.6138ZM28.7629 12.5L24.7629 2.5H27.7606L36.3812 12.5H28.7629ZM4.15838 15H11.1875L16.4851 30.6138L4.15838 15Z" fill="#FC4C02"/>
</svg>
