<svg width="10" height="13" viewBox="0 0 10 13" fill="none" xmlns="http://www.w3.org/2000/svg">
<g clip-path="url(#clip0_1552_9419)">
<path d="M4.99532 0C2.6697 0 0.779785 2.04902 0.779785 4.57031C0.779785 5.42343 0.997623 6.25374 1.41214 6.96975L4.70955 12.8201C4.7658 12.9191 4.85012 12.9801 4.94851 12.9953C5.08195 13.0182 5.22956 12.9572 5.30683 12.8125L8.61368 6.90878C9.00708 6.20803 9.21085 5.393 9.21085 4.57031C9.21085 2.04902 7.32093 0 4.99532 0ZM4.99532 6.85547C3.81501 6.85547 2.88755 5.81953 2.88755 4.57031C2.88755 3.31345 3.83602 2.28515 4.99532 2.28515C6.15462 2.28515 7.10308 3.31345 7.10308 4.57031C7.10308 5.81191 6.18969 6.85547 4.99532 6.85547Z" fill="white"/>
<path d="M4.99561 0V2.28515C6.15491 2.28515 7.10337 3.31345 7.10337 4.57031C7.10337 5.81191 6.18998 6.85547 4.99561 6.85547V12.9998C5.11549 13.0027 5.23877 12.9405 5.30709 12.8125L8.61395 6.90878C9.00737 6.20803 9.21114 5.393 9.21114 4.57031C9.21114 2.04902 7.32122 0 4.99561 0Z" fill="white"/>
</g>
<defs>
<clipPath id="clip0_1552_9419">
<rect width="10" height="13" fill="white"/>
</clipPath>
</defs>
</svg>
