<svg width="40" height="33" viewBox="0 0 40 33" fill="none" xmlns="http://www.w3.org/2000/svg">
<path d="M40 4.58648C40 1.57459 37.1449 -0.618833 34.2347 0.157327L3.40269 8.38044C1.39612 8.91561 0 10.7329 0 12.8096V18.5222C0 20.5989 1.39613 22.4162 3.4027 22.9513L8.32718 24.2647V24.8338C8.32718 28.9765 11.6855 32.3348 15.8282 32.3348C18.8118 32.3348 21.3886 30.5929 22.5969 28.0706L34.2347 31.1745C37.1449 31.9506 40 29.7572 40 26.7453V4.58648ZM34.8791 2.57323C36.2019 2.22043 37.4996 3.21745 37.4996 4.58648V26.7453C37.4996 28.1143 36.2019 29.1114 34.8791 28.7586L4.04704 20.5354C3.13496 20.2922 2.50035 19.4661 2.50035 18.5222V12.8096C2.50035 11.8656 3.13495 11.0396 4.04703 10.7963L34.8791 2.57323ZM20.1158 27.4089C19.2411 28.8623 17.6482 29.8345 15.8282 29.8345C13.0992 29.8345 10.8807 27.6484 10.8285 24.9319L20.1158 27.4089Z" fill="#FC4C02"/>
</svg>
