<svg width="10" height="11" viewBox="0 0 10 11" fill="none" xmlns="http://www.w3.org/2000/svg">
<path d="M9.06242 0.96875H6.56242C6.4381 0.96875 6.31887 1.01814 6.23096 1.10604C6.14305 1.19395 6.09367 1.31318 6.09367 1.4375C6.09367 1.56182 6.14305 1.68105 6.23096 1.76896C6.31887 1.85686 6.4381 1.90625 6.56242 1.90625H7.93076L3.43742 6.39959C3.34991 6.48758 3.30086 6.60668 3.30103 6.73078C3.30119 6.85488 3.35057 6.97385 3.43832 7.0616C3.52607 7.14935 3.64504 7.19872 3.76914 7.19889C3.89324 7.19906 4.01234 7.15001 4.10033 7.0625L8.59367 2.56916V3.9375C8.59367 4.06182 8.64305 4.18105 8.73096 4.26896C8.81887 4.35686 8.9381 4.40625 9.06242 4.40625C9.18674 4.40625 9.30597 4.35686 9.39387 4.26896C9.48178 4.18105 9.53117 4.06182 9.53117 3.9375V1.4375C9.53117 1.31318 9.48178 1.19395 9.39387 1.10604C9.30597 1.01814 9.18674 0.96875 9.06242 0.96875Z" fill="#FC4C02"/>
<path d="M9.0625 5.34375C8.93818 5.34375 8.81895 5.39314 8.73104 5.48104C8.64314 5.56895 8.59375 5.68818 8.59375 5.8125V9.09375H1.40625V1.90625H4.6875C4.81182 1.90625 4.93105 1.85686 5.01896 1.76896C5.10686 1.68105 5.15625 1.56182 5.15625 1.4375C5.15625 1.31318 5.10686 1.19395 5.01896 1.10604C4.93105 1.01814 4.81182 0.96875 4.6875 0.96875H0.9375C0.81318 0.96875 0.693951 1.01814 0.606044 1.10604C0.518136 1.19395 0.46875 1.31318 0.46875 1.4375V9.5625C0.46875 9.68682 0.518136 9.80605 0.606044 9.89396C0.693951 9.98186 0.81318 10.0312 0.9375 10.0312H9.0625C9.18682 10.0312 9.30605 9.98186 9.39396 9.89396C9.48186 9.80605 9.53125 9.68682 9.53125 9.5625V5.8125C9.53125 5.68818 9.48186 5.56895 9.39396 5.48104C9.30605 5.39314 9.18682 5.34375 9.0625 5.34375Z" fill="#FC4C02"/>
</svg>
