<svg width="12" height="17" viewBox="0 0 12 17" fill="none" xmlns="http://www.w3.org/2000/svg">
<path d="M1.9561 0.926107L3.05424 0.592544C4.08825 0.278459 5.19301 0.78605 5.63582 1.77867L6.31941 3.31103C6.69684 4.1571 6.49794 5.15143 5.82471 5.78407L4.63062 6.90618C4.61587 6.92005 4.60375 6.93653 4.59488 6.9548C4.46998 7.21206 4.65924 7.8994 5.25432 8.93806C5.92503 10.1087 6.44344 10.572 6.68287 10.5001L8.25039 10.0171C9.13044 9.74599 10.0842 10.0693 10.6226 10.8214L11.5935 12.1773C12.2237 13.0575 12.1104 14.2719 11.3283 15.0183L10.4933 15.8151C9.90358 16.378 9.07773 16.6142 8.28246 16.4476C5.95561 15.9601 3.87088 14.0719 2.01077 10.8252C0.148839 7.5753 -0.430859 4.8095 0.316977 2.53384C0.570973 1.76093 1.18254 1.16108 1.9561 0.926107ZM2.2425 1.88358C1.77836 2.02457 1.41142 2.38448 1.25902 2.84822C0.614652 4.80903 1.13661 7.29933 2.87018 10.3252C4.6021 13.3481 6.47935 15.0485 8.48445 15.4685C8.96161 15.5685 9.45712 15.4267 9.81098 15.089L10.6459 14.2922C11.0671 13.8903 11.1281 13.2364 10.7887 12.7624L9.81788 11.4065C9.52794 11.0016 9.0144 10.8275 8.54052 10.9735L6.96968 11.4574C6.10026 11.7186 5.28312 10.9884 4.39491 9.43807C3.64298 8.12563 3.38195 7.17764 3.70348 6.51534C3.76561 6.38735 3.85048 6.27192 3.95387 6.17478L5.14793 5.0527C5.51044 4.71205 5.61754 4.17664 5.4143 3.72106L4.73071 2.1887C4.49228 1.65421 3.89741 1.3809 3.34063 1.55002L2.2425 1.88358Z" fill="#FC4C02"/>
</svg>
