<svg width="12" height="13" viewBox="0 0 12 13" fill="none" xmlns="http://www.w3.org/2000/svg">
<path d="M11.6735 9.54069L9.99885 7.7265C9.40077 7.07857 8.38402 7.33777 8.14479 8.18005C7.96537 8.7632 7.36728 9.08717 6.82901 8.95756C5.63284 8.63359 4.01801 6.94899 3.71897 5.58835C3.53954 5.00519 3.89839 4.35727 4.43667 4.16291C5.21418 3.90374 5.45341 2.80227 4.85533 2.15435L3.18069 0.34016C2.70222 -0.113387 1.98452 -0.113387 1.56586 0.34016L0.429504 1.57122C-0.706856 2.86707 0.549121 6.30107 3.36012 9.34631C6.17111 12.3916 9.34096 13.817 10.5371 12.5211L11.6735 11.2901C12.0922 10.7717 12.0922 9.99424 11.6735 9.54069Z" fill="white"/>
</svg>
