<svg width="18" height="18" viewBox="0 0 18 18" fill="none" xmlns="http://www.w3.org/2000/svg">
<path d="M9.00168 1.89226C10.4075 1.89226 11.7817 2.30913 12.9505 3.09013C14.1194 3.87114 15.0304 4.98122 15.5684 6.27999C16.1063 7.57875 16.2471 9.00788 15.9728 10.3866C15.6986 11.7654 15.0216 13.0319 14.0276 14.0259C13.0336 15.02 11.7671 15.6969 10.3883 15.9712C9.00956 16.2454 7.58044 16.1047 6.28167 15.5667C4.9829 15.0287 3.87282 14.1177 3.09181 12.9488C2.31081 11.78 1.89395 10.4058 1.89395 9C1.89572 7.11546 2.64514 5.30861 3.97771 3.97603C5.31029 2.64346 7.11714 1.89404 9.00168 1.89226ZM9.00168 1.56413e-07C7.22158 -0.000331643 5.48135 0.527227 4.00109 1.51596C2.52083 2.50469 1.36702 3.91018 0.68557 5.55469C0.00412396 7.19919 -0.174345 9.00884 0.172732 10.7548C0.519809 12.5007 1.37684 14.1045 2.63545 15.3634C3.89405 16.6222 5.4977 17.4795 7.24357 17.8269C8.98945 18.1743 10.7991 17.9962 12.4438 17.3151C14.0884 16.6339 15.4941 15.4804 16.4831 14.0003C17.4721 12.5202 18 10.7801 18 9C18 6.61334 17.052 4.32441 15.3646 2.63663C13.6771 0.948853 11.3883 0.000445013 9.00168 1.56413e-07Z" fill="#FC4C02"/>
<path d="M9.68609 14.1618H8.30212L5.17519 4.68705H7.09094L8.99495 10.8621L10.8973 4.68705H12.8264L9.68609 14.1618Z" fill="#FC4C02"/>
</svg>
