<svg width="40" height="39" viewBox="0 0 40 39" fill="none" xmlns="http://www.w3.org/2000/svg">
<path d="M20.7891 0.184554C21.1408 0.358128 21.4255 0.642799 21.5991 0.994499L26.8134 11.5598L38.4729 13.254C39.4475 13.3956 40.1229 14.3006 39.9812 15.2753C39.9248 15.6634 39.7421 16.0221 39.4612 16.2959L31.0243 24.5198L33.016 36.1322C33.1825 37.1029 32.5305 38.0248 31.5598 38.1913C31.1732 38.2576 30.7756 38.1947 30.4285 38.0121L19.9999 32.5295L9.57131 38.0121C8.69953 38.4705 7.62127 38.1353 7.16295 37.2635C6.98044 36.9164 6.91746 36.5187 6.98376 36.1322L8.97544 24.5198L0.538552 16.2959C-0.166734 15.6084 -0.181165 14.4793 0.506319 13.774C0.780078 13.4932 1.13879 13.3104 1.52691 13.254L13.1864 11.5598L18.4007 0.994499C18.8366 0.111288 19.9059 -0.251337 20.7891 0.184554ZM14.9628 14.0048L3.69953 15.6414L11.8497 23.5859L9.92571 34.8037L19.9999 29.5073L30.0741 34.8037L28.1501 23.5859L36.3002 15.6414L25.037 14.0048L19.9999 3.79854L14.9628 14.0048Z" fill="#FC4C02"/>
</svg>
