<svg width="40" height="44" viewBox="0 0 40 44" fill="none" xmlns="http://www.w3.org/2000/svg">
<path d="M20 0C15.7323 0 12.2727 3.45962 12.2727 7.72727C12.2727 11.5296 15.0191 14.6905 18.6363 15.3346V20.9132H10.4545C8.1952 20.9132 6.36364 22.7448 6.36364 25.0041V28.3059C2.74635 28.9499 0 32.1108 0 35.9132C0 40.1809 3.45962 43.6405 7.72727 43.6405C11.9949 43.6405 15.4545 40.1809 15.4545 35.9132C15.4545 32.1108 12.7082 28.9499 9.09091 28.3059V25.0041C9.09091 24.251 9.70143 23.6405 10.4545 23.6405H29.5455C30.2986 23.6405 30.9091 24.251 30.9091 25.0041V28.3059C27.2918 28.9499 24.5455 32.1108 24.5455 35.9132C24.5455 40.1809 28.0051 43.6405 32.2727 43.6405C36.5404 43.6405 40 40.1809 40 35.9132C40 32.1108 37.2537 28.9499 33.6364 28.3059V25.0041C33.6364 22.7448 31.8048 20.9132 29.5455 20.9132H21.3636V15.3346C24.9809 14.6906 27.7273 11.5296 27.7273 7.72727C27.7273 3.45962 24.2677 0 20 0ZM15 7.72727C15 4.96585 17.2386 2.72727 20 2.72727C22.7614 2.72727 25 4.96585 25 7.72727C25 10.4887 22.7614 12.7273 20 12.7273C17.2386 12.7273 15 10.4887 15 7.72727ZM2.72727 35.9132C2.72727 33.1518 4.96585 30.9132 7.72727 30.9132C10.4887 30.9132 12.7273 33.1518 12.7273 35.9132C12.7273 38.6746 10.4887 40.9132 7.72727 40.9132C4.96585 40.9132 2.72727 38.6746 2.72727 35.9132ZM32.2727 30.9132C35.0342 30.9132 37.2727 33.1518 37.2727 35.9132C37.2727 38.6746 35.0342 40.9132 32.2727 40.9132C29.5113 40.9132 27.2727 38.6746 27.2727 35.9132C27.2727 33.1518 29.5113 30.9132 32.2727 30.9132Z" fill="#FC4C02"/>
</svg>
