<svg width="178" height="171" viewBox="0 0 178 171" fill="none" xmlns="http://www.w3.org/2000/svg">
<g clip-path="url(#clip0_1542_8739)">
<path d="M100.465 170.172C93.5191 166.877 90.7456 159.046 89.766 151.748C89.6007 150.537 89.254 149.277 89.6491 148.114C90.0441 146.951 91.2616 145.997 92.4307 146.325C93.4022 146.595 93.9707 147.577 94.6197 148.344C95.4853 149.385 96.6271 150.159 97.9133 150.577C98.7478 150.848 99.7435 150.929 100.433 150.383C101.376 149.628 101.239 148.162 101.046 146.963C100.651 144.717 100.257 142.475 99.8645 140.234C99.5915 139.044 99.5112 137.816 99.6266 136.6C99.808 135.388 100.453 134.177 101.542 133.676C102.63 133.175 104.158 133.579 104.597 134.718C104.729 135.209 104.826 135.708 104.888 136.212C105.004 136.709 105.331 137.222 105.827 137.278C106.323 137.335 106.754 136.915 107.056 136.503C108.092 135.077 108.669 133.369 109.193 131.677C109.717 129.985 110.209 128.26 111.112 126.742C112.015 125.223 113.394 123.915 115.099 123.511C116.804 123.107 118.82 123.874 119.533 125.498C120.247 127.121 119.558 129.011 118.727 130.566C117.474 132.876 115.895 134.992 114.039 136.85C113.666 137.155 113.4 137.571 113.281 138.038C113.152 138.886 114.047 139.552 114.893 139.681C115.837 139.831 116.796 139.572 117.752 139.524C118.707 139.475 119.795 139.718 120.299 140.545C120.997 141.692 120.186 143.158 119.32 144.18C117.582 146.219 115.505 147.94 113.18 149.269C112.35 149.745 111.467 150.185 110.858 150.929C110.249 151.672 110.003 152.831 110.576 153.606C111.148 154.382 112.305 154.466 113.2 154.135C114.095 153.804 114.841 153.162 115.671 152.677C117.215 151.773 119.368 151.526 120.67 152.778C121.077 153.216 121.376 153.742 121.545 154.315C121.713 154.889 121.746 155.493 121.642 156.082C121.427 157.254 120.979 158.371 120.324 159.365C118.237 162.96 115.235 165.935 111.624 167.987C107.996 169.97 104.525 170.931 100.481 170.18" fill="#F5F5F5"/>
<path d="M101.566 165.31C102.1 161.153 102.873 157.031 103.88 152.964L104.654 149.757C104.908 148.707 105.162 147.665 105.46 146.66C106.06 144.737 106.767 142.85 107.576 141.006C108.338 139.233 109.124 137.581 109.87 136.042C110.616 134.504 111.346 133.082 112.063 131.814C113.185 129.81 114.463 127.898 115.885 126.096C116.389 125.457 116.796 124.977 117.074 124.654L117.393 124.29C117.469 124.21 117.506 124.169 117.51 124.169C117.483 124.219 117.451 124.265 117.413 124.306C117.336 124.399 117.236 124.525 117.111 124.686C116.84 125.017 116.445 125.494 115.954 126.152C114.562 127.971 113.308 129.89 112.2 131.895C111.495 133.163 110.777 134.585 110.036 136.127C109.294 137.67 108.52 139.322 107.766 141.087C106.964 142.931 106.264 144.819 105.67 146.741C105.359 147.738 105.109 148.76 104.863 149.826L104.089 153.029C103.087 157.088 102.311 161.2 101.763 165.346" fill="#E0E0E0"/>
<path d="M105.537 146.64C105.448 146.485 105.378 146.319 105.331 146.147C105.214 145.824 105.057 145.339 104.871 144.77C104.497 143.599 104.037 141.943 103.537 140.162C103.037 138.381 102.557 136.733 102.166 135.57C101.973 134.988 101.812 134.52 101.699 134.197C101.631 134.032 101.578 133.862 101.542 133.688C101.641 133.836 101.721 133.996 101.779 134.165C101.92 134.48 102.106 134.94 102.316 135.517C102.747 136.668 103.255 138.292 103.755 140.097C104.255 141.902 104.682 143.49 105.021 144.721C105.178 145.279 105.311 145.743 105.424 146.119C105.481 146.287 105.519 146.462 105.537 146.64Z" fill="#E0E0E0"/>
<path d="M120.505 141.127C120.311 141.205 120.11 141.265 119.904 141.305C119.501 141.41 118.945 141.555 118.251 141.757C116.861 142.161 114.962 142.759 112.894 143.526C110.826 144.293 108.983 145.069 107.653 145.67C106.992 145.965 106.464 146.22 106.097 146.389C105.915 146.494 105.721 146.578 105.52 146.64C105.69 146.515 105.871 146.405 106.061 146.312C106.411 146.115 106.931 145.84 107.584 145.505C108.887 144.863 110.725 144.063 112.797 143.292C114.566 142.63 116.368 142.058 118.195 141.579C118.896 141.398 119.469 141.276 119.868 141.2C120.078 141.156 120.291 141.132 120.505 141.127Z" fill="#E0E0E0"/>
<path d="M101.707 164.991C101.654 164.94 101.608 164.883 101.57 164.821L101.211 164.304C100.901 163.856 100.469 163.194 99.9491 162.37C98.901 160.722 97.5303 158.4 96.0508 155.819C94.5713 153.239 93.2289 150.904 92.209 149.236L90.9996 147.266L90.677 146.728C90.6359 146.667 90.602 146.6 90.5763 146.531C90.5763 146.531 90.6287 146.587 90.7133 146.704C90.798 146.821 90.931 147.011 91.0721 147.217C91.3825 147.665 91.8139 148.328 92.338 149.152C93.3821 150.799 94.7568 153.121 96.2363 155.706C97.7158 158.291 99.0582 160.617 100.074 162.285L101.284 164.256C101.413 164.474 101.521 164.66 101.61 164.797C101.651 164.857 101.683 164.922 101.707 164.991Z" fill="#E0E0E0"/>
<path d="M121.13 154.878C121.13 154.878 121.069 154.927 120.94 154.995L120.38 155.298L118.3 156.385C116.542 157.301 114.135 158.598 111.475 160.019C108.814 161.441 106.387 162.729 104.621 163.614C103.731 164.054 103.009 164.421 102.509 164.635L101.925 164.898C101.859 164.933 101.788 164.959 101.715 164.975C101.773 164.928 101.837 164.889 101.904 164.857L102.469 164.555L104.549 163.468C106.303 162.551 108.713 161.255 111.374 159.833C114.035 158.412 116.462 157.124 118.227 156.239C119.114 155.799 119.84 155.452 120.34 155.217L120.92 154.955C120.986 154.92 121.057 154.894 121.13 154.878Z" fill="#E0E0E0"/>
<path d="M50.0572 83.489C50.0572 83.489 45.268 84.1553 47.9569 94.6636C50.6458 105.172 52.9275 110.592 52.9275 110.592C52.9275 110.592 53.2863 112.97 51.3714 112.898C49.4565 112.825 45.5502 111.282 44.2279 113.338C42.8532 115.482 44.0545 118.071 47.0498 120.781C50.0451 123.491 56.4187 129.666 56.9911 130.223C57.5636 130.78 57.9828 131.939 56.6686 132.101C55.3544 132.262 46.0339 131.164 45.784 135.627C45.534 140.089 55.1367 146.256 56.1727 146.934C57.2088 147.613 57.3822 148.174 57.1403 148.776C56.8984 149.378 53.8104 148.715 51.1457 148.514C48.4809 148.312 45.3566 148.542 45.4252 151.131C45.4937 153.719 50.5369 160.258 65.2554 165.116L72.2215 166.921L77.3696 161.841C87.7301 150.299 88.8629 142.112 87.6414 139.835C86.4199 137.557 83.6101 138.906 81.3767 140.412C79.1433 141.919 76.8052 144.047 76.3053 143.623C75.8054 143.199 75.6764 142.662 76.2327 141.543C76.789 140.424 82.0661 130.292 79.6311 126.544C77.1962 122.796 69.6495 128.389 68.428 128.906C67.2065 129.423 67.005 128.196 67.2186 127.44C67.4323 126.685 69.8995 118.152 71.1613 114.291C72.4231 110.43 72.1853 107.603 69.9277 106.424C67.7508 105.285 65.1344 108.58 63.5058 109.598C61.8771 110.616 61.0144 108.387 61.0144 108.387C61.0144 108.387 60.3089 102.551 57.4265 92.0951C54.5441 81.6393 49.9564 83.5092 49.9564 83.5092" fill="#EBEBEB"/>
<path d="M72.2175 168.674C70.1333 161.001 66.6583 147.27 63.6106 135.485C60.5629 123.701 57.8014 113.079 55.7575 105.366C54.7295 101.525 53.8991 98.4114 53.3387 96.2508C53.0565 95.1806 52.8348 94.3486 52.6816 93.7711C52.6091 93.4965 52.5526 93.2784 52.5163 93.125C52.4801 92.9715 52.4639 92.9028 52.4639 92.9028C52.4639 92.9028 52.4922 92.9755 52.5365 93.1209C52.5808 93.2663 52.6453 93.4844 52.726 93.759C52.8872 94.3325 53.1291 95.1644 53.4234 96.2266C54.0281 98.371 54.8827 101.477 55.9228 105.325C58.0111 112.999 60.8007 123.66 63.8444 135.429C66.8881 147.197 70.3389 160.936 72.3868 168.634" fill="#E0E0E0"/>
<path d="M49.5855 115.737C49.747 115.802 49.9011 115.885 50.0451 115.983C50.3313 116.153 50.7425 116.411 51.2545 116.734C52.2583 117.384 53.6249 118.313 55.1125 119.371L58.9141 122.085L60.067 122.893C60.2121 122.983 60.3473 123.089 60.4702 123.208C60.3072 123.147 60.1527 123.066 60.0106 122.966C59.7203 122.796 59.3132 122.537 58.8012 122.206C57.8054 121.548 56.4509 120.591 54.9633 119.545L51.1457 116.859L49.9846 116.052C49.8407 115.961 49.7069 115.856 49.5855 115.737Z" fill="#E0E0E0"/>
<path d="M61.0708 122.877C61.0184 122.841 62.8124 119.937 65.074 116.387C67.3355 112.837 69.2182 109.99 69.2706 110.022C69.323 110.055 67.5291 112.958 65.2634 116.508C62.9978 120.058 61.1232 122.909 61.0708 122.877Z" fill="#E0E0E0"/>
<path d="M64.9329 141.159C65.0516 141.021 65.187 140.897 65.336 140.792L66.4204 139.839C67.3396 139.031 68.5974 137.916 69.9438 136.632C71.2903 135.348 72.4755 134.148 73.3221 133.268L74.3259 132.23C74.4479 132.096 74.583 131.974 74.729 131.867C74.6354 132.019 74.526 132.161 74.4025 132.291C74.1848 132.553 73.8583 132.925 73.4511 133.377C72.6448 134.286 71.4636 135.509 70.1091 136.794C68.7546 138.078 67.4807 139.185 66.5373 139.96C66.0616 140.344 65.6746 140.655 65.4005 140.856C65.258 140.977 65.1009 141.079 64.9329 141.159Z" fill="#E0E0E0"/>
<path d="M53.1412 136.991C53.304 137.008 53.464 137.046 53.6169 137.105L54.8948 137.508C55.9672 137.852 57.4467 138.34 59.0753 138.894C60.704 139.447 62.1754 139.96 63.2357 140.339L64.4894 140.804C64.6468 140.849 64.7973 140.916 64.9369 141.002C64.7742 140.982 64.6144 140.943 64.4612 140.885L63.1873 140.481C62.1109 140.137 60.6314 139.649 59.0028 139.1C57.3741 138.55 55.9027 138.033 54.8424 137.65L53.5887 137.189C53.4326 137.14 53.2825 137.074 53.1412 136.991Z" fill="#E0E0E0"/>
<path d="M54.5038 153.566C54.7107 153.599 54.9144 153.651 55.1125 153.719L56.7492 154.22C58.128 154.652 60.0267 155.266 62.123 155.952C64.2193 156.639 66.11 157.277 67.4767 157.746L69.0892 158.315C69.2914 158.375 69.4872 158.455 69.6737 158.553C69.4667 158.52 69.263 158.469 69.065 158.4L67.4283 157.907C66.0496 157.475 64.1468 156.861 62.0505 156.175C59.9542 155.488 58.0675 154.85 56.7009 154.381L55.0883 153.812C54.8855 153.75 54.6896 153.668 54.5038 153.566Z" fill="#E0E0E0"/>
<path d="M69.3391 158.331C69.481 158.157 69.639 157.996 69.8108 157.851L71.1452 156.595C72.2699 155.528 73.822 154.054 75.4829 152.378C77.1438 150.702 78.6193 149.147 79.6755 148.021L80.9252 146.68C81.0723 146.509 81.2327 146.349 81.4049 146.203C81.2862 146.392 81.1514 146.571 81.0018 146.736C80.7277 147.072 80.3165 147.544 79.7924 148.126C78.7644 149.289 77.3131 150.86 75.6441 152.54C73.9752 154.22 72.4191 155.674 71.254 156.708C70.6735 157.225 70.2018 157.636 69.8713 157.919C69.7062 158.072 69.5282 158.21 69.3391 158.331Z" fill="#E0E0E0"/>
<path d="M29.2555 20.8227L25.3209 19.591C25.3209 19.591 24.2929 22.8985 20.838 21.8849C20.17 21.7019 19.5754 21.315 19.1369 20.778C18.6983 20.241 18.4376 19.5805 18.391 18.8883C18.3441 18.3067 18.435 17.7222 18.6564 17.1825C18.8778 16.6428 19.2233 16.1632 19.6649 15.7826C20.6768 14.8901 22.4506 14.3449 24.954 15.6413L27.7235 6.75648L23.8333 5.54492L22.2208 10.7506C22.2208 10.7506 16.3148 10.4518 14.4403 16.4773C12.6463 22.2403 17.3872 25.1884 19.5964 25.879C21.2855 26.408 27.1632 27.7973 29.2555 20.8227Z" fill="#F5F5F5"/>
<path d="M24.3545 3.69177L28.3029 4.92603L29.4533 1.23273L25.5049 -0.00152546L24.3545 3.69177Z" fill="#F5F5F5"/>
<path d="M40.1159 10.7871L41.6881 10.3832C41.64 10.2036 41.6283 10.0162 41.6538 9.83197C41.6793 9.64778 41.7414 9.47059 41.8365 9.3109C41.9317 9.15122 42.0578 9.01228 42.2075 8.90234C42.3572 8.7924 42.5274 8.71368 42.7081 8.67086C42.9706 8.59082 43.2516 8.59488 43.5118 8.68248C43.7719 8.77008 43.9983 8.93685 44.1593 9.15952C44.2964 9.34478 44.388 9.55983 44.4265 9.78719C44.465 10.0145 44.4494 10.2478 44.3811 10.468C44.2319 10.9809 43.7522 11.5342 42.6395 11.6311L43.5788 15.1891L45.1349 14.7852L44.5867 12.6811C45.1771 12.3239 45.6339 11.7821 45.8867 11.1391C46.1395 10.4962 46.1742 9.78783 45.9855 9.12317C45.3808 6.81716 43.1636 6.82524 42.2888 7.05948C41.6115 7.23717 39.35 8.01257 40.1159 10.7871Z" fill="#EBEBEB"/>
<path d="M45.5671 15.3164L43.9795 15.7427L44.3767 17.2274L45.9643 16.8011L45.5671 15.3164Z" fill="#EBEBEB"/>
<path d="M170.248 51.6612L171.78 52.2185C171.842 52.0433 171.94 51.8824 172.065 51.7455C172.191 51.6085 172.343 51.4981 172.512 51.4209C172.681 51.3438 172.864 51.3013 173.05 51.2961C173.236 51.2909 173.421 51.3231 173.594 51.3906C173.851 51.4748 174.077 51.6362 174.24 51.8528C174.402 52.0695 174.495 52.3311 174.505 52.6022C174.515 52.834 174.47 53.0649 174.373 53.2757C174.277 53.4864 174.131 53.6709 173.948 53.8138C173.545 54.149 172.824 54.3347 171.856 53.7774L170.602 57.2384L172.118 57.7877L172.852 55.7684C173.54 55.8104 174.223 55.6255 174.796 55.2418C175.369 54.8582 175.8 54.297 176.025 53.6441C176.831 51.3987 175.017 50.1468 174.154 49.8358C173.497 49.5975 171.199 48.9433 170.248 51.6612Z" fill="#EBEBEB"/>
<path d="M171.889 58.5047L170.35 57.9463L169.83 59.3854L171.369 59.9438L171.889 58.5047Z" fill="#EBEBEB"/>
<path d="M7.65955 69.241L10.8846 67.989C10.8846 67.989 9.83648 65.263 12.6463 64.1201C13.1841 63.8921 13.7792 63.8369 14.3496 63.9621C14.92 64.0872 15.4376 64.3865 15.8311 64.8188C16.1658 65.1781 16.4111 65.6116 16.547 66.0839C16.6829 66.5562 16.7056 67.054 16.6132 67.5367C16.4116 68.6594 15.5247 69.9598 13.1906 70.4041L16.0125 77.73L19.2174 76.4901L17.5686 72.2012C17.5686 72.2012 21.5999 69.3015 19.7052 64.3382C17.879 59.5888 13.2027 60.126 11.3845 60.8287C10.0179 61.386 5.40603 63.5345 7.65955 69.241Z" fill="#F5F5F5"/>
<path d="M19.8642 77.9863L16.6102 79.2422L17.7813 82.2872L21.0352 81.0313L19.8642 77.9863Z" fill="#F5F5F5"/>
<path d="M171.51 81.5787L169.212 82.4671C169.212 82.4671 169.957 84.4016 167.966 85.2093C167.585 85.3726 167.162 85.4126 166.758 85.3235C166.353 85.2344 165.986 85.0208 165.708 84.7126C165.471 84.4582 165.296 84.1511 165.199 83.8163C165.103 83.4815 165.087 83.1285 165.152 82.7862C165.297 81.9785 165.926 81.0779 167.571 80.7669L165.575 75.5774L163.302 76.4538L164.471 79.4948C163.644 80.1287 163.048 81.0169 162.774 82.023C162.501 83.0291 162.564 84.0974 162.955 85.0639C164.249 88.4321 167.563 88.0484 168.853 87.5517C169.849 87.1397 173.114 85.6172 171.51 81.5787Z" fill="#F5F5F5"/>
<path d="M162.874 75.3671L165.18 74.4771L164.351 72.3215L162.045 73.2115L162.874 75.3671Z" fill="#F5F5F5"/>
<path d="M25.5627 160.379C25.9659 158.893 24.9742 157.402 23.8817 156.34C22.7892 155.278 21.4911 154.297 20.9227 152.871C20.0035 150.565 21.2411 147.577 19.673 145.65C18.7498 144.515 17.0969 144.136 16.2786 142.928C15.9019 142.258 15.6519 141.524 15.5408 140.764C14.6705 136.922 12.7836 133.385 10.0784 130.526C9.89783 133.942 10.6372 137.344 12.219 140.376C12.856 141.587 13.634 142.771 13.8315 144.12C14.1742 146.317 12.9527 148.562 13.4889 150.731C14.1057 153.194 16.8671 154.842 17.0002 157.378C17.109 159.523 15.2425 161.417 15.3876 163.549C15.4969 164.461 15.8232 165.334 16.339 166.093C17.9959 168.848 20.4268 170.75 24.1115 170.685L28.6266 170.843L25.5627 160.379Z" fill="#E8505B"/>
<g opacity="0.3">
<path opacity="0.3" d="M25.5627 160.379C25.9659 158.893 24.9742 157.402 23.8817 156.34C22.7892 155.278 21.4911 154.297 20.9227 152.871C20.0035 150.565 21.2411 147.577 19.673 145.65C18.7498 144.515 17.0969 144.136 16.2786 142.928C15.9019 142.258 15.6519 141.524 15.5408 140.764C14.6705 136.922 12.7836 133.385 10.0784 130.526C9.89783 133.942 10.6372 137.344 12.219 140.376C12.856 141.587 13.634 142.771 13.8315 144.12C14.1742 146.317 12.9527 148.562 13.4889 150.731C14.1057 153.194 16.8671 154.842 17.0002 157.378C17.109 159.523 15.2425 161.417 15.3876 163.549C15.4969 164.461 15.8232 165.334 16.339 166.093C17.9959 168.848 20.4268 170.75 24.1115 170.685L28.6266 170.843L25.5627 160.379Z" fill="black"/>
</g>
<path d="M29.5538 170.964C29.9675 171.027 30.3891 171.018 30.7995 170.936C31.2998 170.863 31.7915 170.74 32.2669 170.568C32.9215 170.339 33.5333 170.002 34.077 169.571C34.4051 169.308 34.6616 168.966 34.8227 168.577C34.9564 168.14 35.0283 167.686 35.0364 167.228C35.0443 166.738 35.0792 166.249 35.1412 165.762C35.2294 165.247 35.4155 164.753 35.6895 164.308C36.2257 163.371 37.1085 162.487 37.3947 161.215C37.681 159.943 37.4794 158.61 37.2698 157.249C37.0601 155.888 36.8666 154.422 37.3746 153C37.8825 151.579 38.8501 150.311 39.3459 148.716C39.8418 147.12 39.608 145.376 39.7128 143.667C39.7452 142.8 39.945 141.947 40.3013 141.155C40.6642 140.348 41.1721 139.601 41.5672 138.756C42.3735 137.052 42.5105 135.122 42.7282 133.232C42.8384 132.279 42.9473 131.315 43.0548 130.34C43.12 129.361 43.2876 128.392 43.5546 127.449C43.8591 126.495 44.2199 125.56 44.635 124.65C44.8478 124.174 45.0204 123.681 45.1511 123.176C45.227 122.66 45.2754 122.141 45.2962 121.621C45.3464 120.576 45.306 119.529 45.1752 118.491C45.0543 117.449 44.8648 116.411 44.7721 115.365C44.7721 115.305 44.7721 115.244 44.7721 115.188V114.978L44.5867 115.07C43.6334 115.56 42.8057 116.264 42.1679 117.126C41.5427 117.969 41.0404 118.896 40.6763 119.88C39.9184 121.823 39.6483 123.862 39.2693 125.805C38.8904 127.747 38.4066 129.658 37.4149 131.273C36.919 132.081 36.3224 132.812 35.8024 133.599C35.2413 134.363 34.8584 135.244 34.6817 136.176C34.4156 138.09 35.4879 139.77 35.246 141.462C35.1492 142.293 34.8741 143.094 34.4398 143.809C34.0366 144.532 33.5488 145.202 33.0893 145.876C32.6235 146.534 32.2186 147.233 31.8799 147.964C31.5309 148.676 31.3137 149.445 31.2389 150.234C31.13 151.761 31.3477 153.206 31.2389 154.571C31.113 155.871 30.7351 157.133 30.1262 158.287C29.578 159.402 28.9692 160.407 28.4613 161.38C28.2073 161.869 27.9695 162.346 27.776 162.822C27.5928 163.284 27.4578 163.763 27.3728 164.252C27.238 165.106 27.2271 165.975 27.3406 166.832C27.46 168.028 27.9064 169.167 28.6306 170.124C28.7417 170.268 28.8644 170.403 28.9975 170.528C29.0865 170.621 29.1851 170.705 29.2917 170.778C29.4611 170.903 29.5498 170.96 29.5498 170.96C29.2291 170.703 28.9372 170.412 28.679 170.092C27.9848 169.134 27.5664 168.004 27.4696 166.824C27.3669 165.978 27.3859 165.121 27.526 164.28C27.6126 163.802 27.7477 163.334 27.9291 162.883C28.1227 162.418 28.3605 161.946 28.6185 161.461C29.1305 160.496 29.7433 159.494 30.3036 158.372C30.925 157.199 31.3125 155.917 31.4445 154.596C31.5614 153.202 31.3518 151.748 31.4646 150.258C31.5165 149.502 31.7008 148.761 32.0089 148.069C32.3483 147.352 32.7532 146.668 33.2183 146.026C33.6738 145.355 34.1616 144.681 34.5809 143.946C35.0398 143.203 35.334 142.37 35.4436 141.503C35.6613 139.697 34.6373 138.005 34.8873 136.228C35.0623 135.337 35.4327 134.496 35.9717 133.765C36.4877 132.993 37.0884 132.254 37.5842 131.431C38.6122 129.771 39.1081 127.82 39.483 125.869C39.8579 123.919 40.1401 121.9 40.8778 119.997C41.2354 119.039 41.7253 118.135 42.3331 117.312C42.947 116.486 43.743 115.812 44.6592 115.345L44.4536 115.228C44.4536 115.284 44.4536 115.349 44.4536 115.41C44.5665 116.468 44.756 117.506 44.8769 118.535C45.0042 119.559 45.0433 120.591 44.9938 121.621C44.9754 122.125 44.9297 122.628 44.8568 123.127C44.7289 123.611 44.559 124.083 44.3488 124.537C43.9325 125.457 43.5704 126.401 43.2644 127.364C42.9925 128.323 42.8209 129.309 42.7524 130.304C42.6476 131.277 42.5387 132.242 42.4339 133.195C42.2203 135.098 42.0751 136.996 41.3052 138.639C40.902 139.447 40.4183 140.214 40.0433 141.042C39.6757 141.863 39.4704 142.748 39.4386 143.647C39.3379 145.392 39.5636 147.096 39.096 148.643C38.6283 150.19 37.6407 151.47 37.1448 152.924C36.6489 154.378 36.8304 155.924 37.0481 157.277C37.2657 158.63 37.4834 159.963 37.1932 161.166C36.9029 162.37 36.0725 163.258 35.5323 164.224C35.2492 164.686 35.0588 165.199 34.9719 165.734C34.9111 166.226 34.8788 166.721 34.8752 167.216C34.8748 167.66 34.811 168.102 34.6857 168.529C34.5341 168.9 34.2931 169.227 33.9842 169.482C33.4641 169.908 32.8788 170.248 32.2508 170.487C31.7821 170.667 31.2975 170.802 30.8035 170.891C30.5012 170.944 30.1952 170.974 29.8884 170.98C29.6626 170.96 29.5538 170.964 29.5538 170.964Z" fill="#263238"/>
<path d="M43.8167 117.687C43.7997 117.732 43.7862 117.778 43.7764 117.825C43.7481 117.934 43.7159 118.067 43.6756 118.228C43.5869 118.584 43.4821 119.121 43.3087 119.795C43.1354 120.47 42.7242 121.221 42.3735 122.158C41.9627 123.208 41.6048 124.278 41.3011 125.365C40.9544 126.576 40.6521 127.909 40.3336 129.342C40.0151 130.776 39.6725 132.311 38.8863 133.761C38.5155 134.496 38.1002 135.239 37.7697 136.051C37.4446 136.885 37.2265 137.758 37.1206 138.647C36.8933 140.486 36.5676 142.312 36.145 144.115C35.242 147.823 34.3793 151.353 33.5932 154.567L31.4445 163.093C30.8478 165.516 30.3641 167.462 30.0254 168.843C29.8682 169.506 29.7433 170.031 29.6546 170.41C29.6183 170.576 29.586 170.713 29.5659 170.814C29.5525 170.86 29.5444 170.908 29.5417 170.956C29.5417 170.956 29.5659 170.911 29.5941 170.822C29.6223 170.734 29.6626 170.58 29.711 170.419C29.8118 170.039 29.9569 169.522 30.1141 168.864C30.477 167.487 30.9889 165.536 31.6219 163.137C32.2548 160.738 32.9925 157.826 33.8189 154.628C34.6454 151.429 35.5161 147.892 36.4272 144.176C36.8518 142.365 37.1761 140.531 37.3988 138.684C37.5027 137.817 37.714 136.966 38.0277 136.151C38.3461 135.344 38.7573 134.617 39.1242 133.878C39.9305 132.4 40.2489 130.817 40.5674 129.391C40.8859 127.965 41.1681 126.616 41.4987 125.413C41.8292 124.21 42.1759 123.139 42.5226 122.21C42.8693 121.282 43.2523 120.51 43.4176 119.82C43.5829 119.129 43.6635 118.608 43.732 118.236C43.7589 118.07 43.7831 117.935 43.8046 117.833C43.8167 117.74 43.8247 117.691 43.8167 117.687Z" fill="#263238"/>
<path d="M30.352 170.976C33.2989 169.223 34.1455 163.892 32.9159 160.686C31.6864 157.479 29.5336 154.547 29.2031 151.126C28.9491 148.497 29.8078 145.8 29.2031 143.231C28.3968 139.762 24.9984 137.076 25.0387 133.51C25.0387 131.511 26.1957 129.629 26.107 127.63C25.9941 125.179 24.1155 123.236 22.9545 121.076C21.1726 117.772 21.0557 113.863 20.447 110.172C19.8383 106.48 18.4313 102.498 15.1498 100.677C14.666 103.823 13.8396 105.976 14.1016 110.24C14.1944 111.771 15.9682 114.683 16.21 118.055C16.3552 120.074 16.4519 122.065 16.5769 124.072C16.7019 126.079 16.8228 128.014 17.5202 129.839C18.0564 131.241 18.9151 132.509 19.3142 133.955C20.06 136.677 19.0763 139.609 19.681 142.375C20.193 144.709 21.8055 146.716 22.1361 149.083C22.5997 152.407 20.451 155.86 21.5475 159.034C22.0958 160.605 23.3858 161.861 23.7527 163.497C24.0389 164.757 23.7285 166.089 23.9865 167.357C24.3896 169.397 28.288 170.992 30.3601 170.855" fill="#E8505B"/>
<path d="M15.9561 103.791C15.9507 103.85 15.9507 103.909 15.9561 103.968C15.9561 104.102 15.9964 104.271 16.0246 104.485C16.0891 104.942 16.1657 105.608 16.3189 106.468C16.4721 107.329 16.9316 108.314 17.2864 109.493C17.6412 110.672 18.0362 112.021 18.3668 113.532C18.6974 115.042 18.9876 116.726 19.2819 118.531C19.5762 120.337 19.8987 122.303 20.7937 124.185C21.1968 125.13 21.6725 126.075 22.0031 127.081C22.3434 128.115 22.5519 129.189 22.6239 130.276C22.7908 132.578 23.0801 134.87 23.4906 137.141L26.0344 150.282C26.8407 154.321 27.6026 157.936 28.2315 160.989C28.8604 164.042 29.3764 166.477 29.7352 168.201C29.9166 169.033 30.0577 169.692 30.1383 170.156C30.1867 170.37 30.227 170.536 30.2552 170.665C30.2656 170.723 30.2818 170.78 30.3036 170.835C30.3041 170.776 30.2974 170.718 30.2835 170.661C30.2835 170.528 30.2311 170.358 30.1948 170.148C30.1061 169.676 29.9811 169.017 29.8239 168.177C29.4893 166.453 29.0176 163.985 28.4129 160.948C27.8082 157.911 27.1269 154.273 26.3247 150.234C25.5224 146.195 24.7121 141.753 23.8051 137.097C23.3941 134.825 23.1035 132.533 22.9343 130.231C22.858 129.123 22.6426 128.03 22.2933 126.976C21.9345 125.946 21.4629 124.997 21.0517 124.06C20.1608 122.211 19.8423 120.276 19.5319 118.479C19.2214 116.682 18.9473 115.006 18.5805 113.483C18.2136 111.961 17.8468 110.608 17.4517 109.445C17.0566 108.282 16.6172 107.296 16.4438 106.448C16.2705 105.6 16.1778 104.93 16.0931 104.481L15.9964 103.968C15.9903 103.908 15.9767 103.848 15.9561 103.791Z" fill="#263238"/>
<path d="M158.129 19.4216H156.517C156.518 19.6047 156.482 19.7861 156.412 19.955C156.342 20.124 156.239 20.2771 156.108 20.4052C155.978 20.5333 155.823 20.6338 155.653 20.7007C155.482 20.7676 155.301 20.7996 155.118 20.7947C154.849 20.8041 154.583 20.7295 154.358 20.5813C154.132 20.433 153.959 20.2183 153.86 19.9668C153.775 19.7557 153.742 19.5273 153.762 19.3005C153.782 19.0737 153.856 18.855 153.977 18.6624C154.247 18.2141 154.844 17.8062 155.924 17.996V14.3613H154.34V16.4856C153.689 16.6774 153.118 17.078 152.716 17.6259C152.314 18.1738 152.103 18.8387 152.115 19.5185C152.115 21.869 154.219 22.4182 155.118 22.4182C155.811 22.4263 158.158 22.2567 158.129 19.4216Z" fill="#E8505B"/>
<path d="M154.324 13.6262H155.932V12.1198H154.324V13.6262Z" fill="#E8505B"/>
<path d="M166.918 17.269C166.922 17.2017 166.922 17.1343 166.918 17.067C166.918 16.9176 166.918 16.7197 166.898 16.4693C166.898 16.3361 166.898 16.1907 166.898 16.0291C166.898 15.8676 166.849 15.6899 166.821 15.5001C166.793 15.3103 166.765 15.0962 166.732 14.8862C166.7 14.6762 166.624 14.442 166.563 14.1997C166.265 13.0154 165.775 11.8884 165.112 10.8638C164.24 9.49984 163.1 8.32778 161.762 7.41897C160.124 6.3294 158.244 5.6583 156.287 5.46431C155.751 5.41679 155.212 5.40599 154.675 5.432C154.405 5.432 154.126 5.432 153.868 5.4845L153.042 5.6097C151.902 5.81875 150.799 6.19573 149.768 6.72838C148.689 7.29522 147.698 8.01623 146.826 8.8688C145.932 9.77723 145.185 10.8196 144.612 11.9583C144.009 13.1334 143.619 14.4064 143.459 15.7182C143.409 16.0511 143.381 16.3871 143.375 16.7238C143.355 17.0614 143.355 17.3999 143.375 17.7374C143.465 19.8972 144.141 21.9914 145.33 23.7953V23.6741C144.771 25.0768 144.221 26.4499 143.681 27.7934L143.58 28.0357L143.834 27.9671L148.233 26.7555L148.124 26.7353C149.602 27.8532 151.323 28.606 153.147 28.9323C153.994 29.0897 154.858 29.1439 155.719 29.0938C156.134 29.0876 156.548 29.0485 156.956 28.9767L157.557 28.8838C157.755 28.8475 157.96 28.7869 158.142 28.7384C160.844 28.0482 163.214 26.4195 164.83 24.1426C165.433 23.302 165.917 22.3819 166.269 21.4085C166.345 21.1944 166.418 21.0046 166.49 20.7906C166.563 20.5765 166.591 20.3867 166.636 20.205C166.68 20.0233 166.728 19.8415 166.769 19.6719C166.809 19.5023 166.821 19.3327 166.845 19.1792C166.882 18.8682 166.938 18.5936 166.95 18.3715C166.962 18.1494 166.95 17.9313 166.97 17.7657C166.99 17.6001 166.97 17.4911 166.97 17.3942C166.975 17.3525 166.975 17.3106 166.97 17.269C166.958 17.3096 166.951 17.3517 166.95 17.3942C166.95 17.4911 166.95 17.6122 166.922 17.7617C166.894 17.9111 166.898 18.1292 166.882 18.3634C166.865 18.5977 166.805 18.8723 166.757 19.1711C166.369 21.415 165.337 23.4971 163.787 25.1626C162.237 26.8281 160.236 28.0048 158.029 28.5486C157.839 28.5931 157.65 28.6536 157.456 28.69L156.864 28.7788C156.464 28.8437 156.059 28.8801 155.654 28.8879C154.809 28.9331 153.962 28.8762 153.131 28.7182C151.345 28.3929 149.661 27.6498 148.216 26.5495L148.168 26.5132H148.108L143.709 27.7248L143.867 27.8984C144.403 26.5576 144.955 25.1805 145.519 23.7791L145.548 23.7145L145.507 23.658C144.717 22.4531 144.154 21.113 143.846 19.7042C143.709 19.0498 143.626 18.3853 143.596 17.7173C143.583 17.3873 143.59 17.0569 143.617 16.7278C143.621 16.3992 143.648 16.0713 143.697 15.7464C143.852 14.463 144.232 13.2172 144.822 12.0673C145.381 10.9539 146.109 9.9336 146.979 9.04246C147.832 8.20577 148.801 7.49708 149.857 6.93838C150.865 6.41539 151.943 6.0426 153.058 5.83182L153.864 5.70662C154.13 5.66624 154.405 5.67028 154.671 5.65008C155.196 5.62371 155.723 5.6318 156.247 5.67432C158.002 5.83066 159.699 6.38448 161.21 7.29397C162.72 8.20346 164.005 9.44485 164.967 10.9244C165.631 11.931 166.129 13.0383 166.442 14.2037L166.624 14.8822C166.66 15.1003 166.692 15.286 166.724 15.492C166.757 15.698 166.785 15.8555 166.809 16.013C166.833 16.1705 166.829 16.3199 166.841 16.4532C166.861 16.7036 166.873 16.9015 166.886 17.0469C166.89 17.1217 166.901 17.196 166.918 17.269Z" fill="#263238"/>
<path d="M46.6991 64.8996H69.9801C69.9801 64.8996 69.9801 45.3167 90.294 44.9654C100.848 44.7836 106.319 51.7057 108.54 57.0123C111.12 63.1711 110.338 70.1901 106.883 75.9006C102.932 82.4228 94.4262 88.9774 78.7362 86.207L78.587 138.171H101.61V107.369C101.61 107.369 133.897 99.0051 133.897 63.3488C133.897 29.2433 106.367 21.873 91.5679 21.4005C83.3319 21.1379 80.3487 20.7826 70.1655 22.2324C57.1927 24.0901 46.425 39.1741 46.6991 64.8996Z" fill="#E8505B"/>
<path d="M101.888 149.006H78.5225V170.867H101.888V149.006Z" fill="#E8505B"/>
<path opacity="0.1" d="M101.888 149.006H78.5225V170.867H101.888V149.006Z" fill="black"/>
<path opacity="0.1" d="M46.6991 64.8996H69.9801C69.9801 64.8996 69.9801 45.3167 90.294 44.9654C100.848 44.7836 106.319 51.7057 108.54 57.0123C111.12 63.1711 110.338 70.1901 106.883 75.9006C102.932 82.4228 94.4262 88.9774 78.7362 86.207L78.587 138.171H101.61V107.369C101.61 107.369 133.897 99.0051 133.897 63.3488C133.897 29.2433 106.367 21.873 91.5679 21.4005C83.3319 21.1379 80.3487 20.7826 70.1655 22.2324C57.1927 24.0901 46.425 39.1741 46.6991 64.8996Z" fill="black"/>
<path d="M37.0561 64.8995H60.3371C60.3371 64.8995 60.3371 45.3166 80.6511 44.9652C91.2011 44.7835 96.6716 51.7056 98.8969 57.0122C101.477 63.171 100.695 70.19 97.236 75.9005C93.2893 82.4227 84.634 88.3513 68.9441 85.593V138.171H91.9671V107.369C91.9671 107.369 124.254 99.005 124.254 63.3487C124.254 29.2432 93.7247 21.3196 80.6551 21.3196C70.6614 21.3317 36.6167 23.7548 37.0561 64.8995Z" fill="#E8505B"/>
<path opacity="0.3" d="M37.0561 64.8995H60.3371C60.3371 64.8995 60.3371 45.3166 80.6511 44.9652C91.2011 44.7835 96.6716 51.7056 98.8969 57.0122C101.477 63.171 100.695 70.19 97.236 75.9005C93.2893 82.4227 84.634 88.3513 68.9441 85.593V138.171H91.9671V107.369C91.9671 107.369 124.254 99.005 124.254 63.3487C124.254 29.2432 93.7247 21.3196 80.6551 21.3196C70.6614 21.3317 36.6167 23.7548 37.0561 64.8995Z" fill="black"/>
<path d="M92.2452 149.006H68.8796V170.867H92.2452V149.006Z" fill="#E8505B"/>
<path opacity="0.3" d="M92.2452 149.006H68.8796V170.867H92.2452V149.006Z" fill="black"/>
<path d="M83.2795 45.0744C83.1642 45.0844 83.0482 45.0844 82.9328 45.0744C82.703 45.0744 82.3725 44.9977 81.9411 44.9937C80.7216 44.934 79.4993 44.984 78.2887 45.1431C76.4943 45.3746 74.7286 45.7915 73.0198 46.387C72.0128 46.7381 71.0321 47.1606 70.0849 47.651C69.0619 48.1664 68.0981 48.7921 67.2106 49.5168C66.3321 50.2489 65.5432 51.0826 64.8603 52.0005C64.2161 52.8527 63.6276 53.7457 63.0986 54.6741C62.2161 56.2571 61.5168 57.9359 61.0144 59.6778C60.6747 60.8513 60.44 62.0528 60.313 63.2681C60.2646 63.7002 60.2525 64.0354 60.2404 64.2656C60.2407 64.3821 60.2299 64.4984 60.2081 64.6129C60.1994 64.496 60.1994 64.3785 60.2081 64.2615C60.2017 63.9287 60.2124 63.5957 60.2404 63.264C60.3331 62.0342 60.5478 60.8166 60.8814 59.6293C61.3662 57.8689 62.0563 56.1718 62.9374 54.5731C63.4674 53.6332 64.0586 52.7293 64.7071 51.8673C65.3957 50.9331 66.1943 50.0856 67.0856 49.3432C67.9831 48.6096 68.9593 47.9784 69.9962 47.4612C70.9531 46.9678 71.9448 46.5453 72.9633 46.1972C74.6871 45.6027 76.4698 45.1965 78.2807 44.9856C79.499 44.8356 80.7292 44.8072 81.9532 44.9008C82.2855 44.9232 82.6165 44.9623 82.9449 45.0179C83.0578 45.0275 83.1697 45.0464 83.2795 45.0744Z" fill="#263238"/>
<path d="M118.36 40.9106C118.331 40.8826 118.306 40.8515 118.284 40.8177L118.082 40.5391C117.897 40.2766 117.639 39.9131 117.316 39.4487C117.147 39.2144 116.974 38.9439 116.76 38.6652L116.034 37.7808L115.2 36.7509C114.897 36.3996 114.543 36.0563 114.192 35.6807C113.841 35.3051 113.47 34.9053 113.059 34.5176L111.757 33.3384C111.531 33.1364 111.309 32.9345 111.068 32.7245L110.318 32.1308C109.806 31.727 109.298 31.3231 108.746 30.9193C106.339 29.1935 103.786 27.684 101.114 26.4082L98.9897 25.443L96.8813 24.6353C96.196 24.3526 95.4945 24.1466 94.8132 23.9245C94.1319 23.7024 93.4748 23.4682 92.7975 23.3107L90.8706 22.8018C90.2457 22.6362 89.6249 22.5393 89.0323 22.398C88.4397 22.2566 87.8672 22.1395 87.3068 22.0668L85.6943 21.8366C84.6744 21.6629 83.7391 21.6266 82.9248 21.5418C82.5216 21.5135 82.1185 21.4691 81.7839 21.4529L80.8244 21.4247L79.4941 21.3843H79.1474C79.1085 21.3885 79.0693 21.3885 79.0305 21.3843H79.1474H80.8244H81.7879C82.1427 21.3843 82.5216 21.4327 82.9328 21.457C83.7391 21.5297 84.6905 21.5539 85.7104 21.7195L87.323 21.9416C87.8833 22.0062 88.4558 22.1516 89.0564 22.2606C89.6571 22.3697 90.2658 22.4787 90.9028 22.6645L92.8378 23.1653C93.507 23.3187 94.1682 23.5691 94.8535 23.7751C95.5388 23.9811 96.2363 24.1789 96.9297 24.4818L99.0461 25.2895L101.183 26.2548C103.867 27.5365 106.431 29.0585 108.842 30.8022C109.399 31.206 109.907 31.6381 110.419 32.0137L111.168 32.6155C111.41 32.8174 111.632 33.0193 111.858 33.2374L113.156 34.4288C113.559 34.8326 113.922 35.2365 114.281 35.604C114.639 35.9715 114.982 36.335 115.284 36.6904L116.091 37.7242L116.808 38.6208C117.014 38.9035 117.187 39.1781 117.348 39.4285L118.082 40.5431L118.272 40.8339C118.304 40.8561 118.334 40.8819 118.36 40.9106Z" fill="#263238"/>
<path d="M115.933 90.9846C115.887 91.0728 115.828 91.1543 115.76 91.2269L115.22 91.8973C114.99 92.1881 114.7 92.5395 114.341 92.9312C113.982 93.3229 113.599 93.7874 113.132 94.2599C112.664 94.7324 112.164 95.2695 111.596 95.8066C111.027 96.3438 110.41 96.9132 109.753 97.5028C108.304 98.7548 106.79 99.9302 105.218 101.024C103.641 102.105 102.007 103.099 100.324 104.005C99.542 104.409 98.8042 104.813 98.0907 105.128C97.3771 105.443 96.716 105.758 96.0992 106.016C95.4824 106.275 94.922 106.489 94.4302 106.678C93.9384 106.868 93.507 107.018 93.1523 107.131L92.346 107.397C92.2508 107.43 92.1539 107.457 92.0558 107.478C92.1432 107.429 92.235 107.389 92.3299 107.357L93.1362 107.054C93.4869 106.929 93.9142 106.771 94.398 106.569C94.8817 106.367 95.4501 106.166 96.0549 105.879C96.6596 105.592 97.3288 105.317 98.0262 104.97C98.7236 104.623 99.4694 104.243 100.247 103.835C101.783 102.991 103.44 101.998 105.113 100.851C106.786 99.7038 108.294 98.4963 109.628 97.3574C110.286 96.7719 110.918 96.2267 111.475 95.6814C112.031 95.1362 112.559 94.6314 113.023 94.1589C113.486 93.6864 113.894 93.2381 114.256 92.8545C114.619 92.4708 114.918 92.1275 115.159 91.8448L115.728 91.2027C115.791 91.1249 115.859 91.052 115.933 90.9846Z" fill="#263238"/>
<path d="M91.5599 136.341C91.4994 136.341 91.4551 129.855 91.4551 121.855C91.4551 113.855 91.4994 107.365 91.5599 107.365C91.6204 107.365 91.6647 113.851 91.6647 121.855C91.6647 129.859 91.6164 136.341 91.5599 136.341Z" fill="#263238"/>
<path d="M92.4468 169.385C92.3904 169.385 92.342 164.833 92.342 159.216C92.342 153.598 92.3904 149.051 92.4468 149.051C92.5032 149.051 92.5516 153.602 92.5516 159.216C92.5516 164.829 92.5032 169.385 92.4468 169.385Z" fill="#263238"/>
<path d="M115.365 61.7898C114.962 62.5975 116.466 63.2558 117.332 63.5183C118.216 63.7391 119.131 63.8034 120.037 63.7081C121.247 63.6435 122.484 63.5304 123.528 62.9327C124.444 62.3647 125.175 61.5425 125.633 60.5661C126.087 59.5952 126.445 58.5821 126.701 57.5413C126.701 57.5413 117.175 58.1794 115.365 61.7898Z" fill="#E8505B"/>
<g opacity="0.4">
<path opacity="0.4" d="M115.365 61.7898C114.962 62.5975 116.466 63.2558 117.332 63.5183C118.216 63.7391 119.131 63.8034 120.037 63.7081C121.247 63.6435 122.484 63.5304 123.528 62.9327C124.444 62.3647 125.175 61.5425 125.633 60.5661C126.087 59.5952 126.445 58.5821 126.701 57.5413C126.701 57.5413 117.175 58.1794 115.365 61.7898Z" fill="black"/>
</g>
<path d="M142.27 59.2133C143.839 60.3324 145.722 60.9248 147.648 60.9055C148.563 60.9055 149.535 60.7156 150.208 60.0977C150.518 59.8151 150.752 59.4516 151.071 59.177C151.288 58.9912 151.542 58.8498 151.748 58.6479C151.857 58.5554 151.941 58.4371 151.992 58.3038C152.043 58.1704 152.061 58.0264 152.042 57.8846C151.963 57.5324 151.767 57.2176 151.486 56.9921C150.393 56.3702 149.087 56.3904 147.829 56.4186C146.57 56.4746 145.327 56.7196 144.141 57.1456C143.165 57.4727 142.145 57.9533 141.649 58.8418" fill="#E8505B"/>
<g opacity="0.4">
<path opacity="0.4" d="M152.042 57.8845C151.901 57.5432 151.65 57.2589 151.329 57.0768C150.236 56.4548 149.087 56.3942 147.829 56.4225C146.57 56.4785 145.327 56.7235 144.141 57.1494C143.165 57.4766 142.145 57.9572 141.649 58.8456L142.27 59.2172C143.839 60.3363 145.722 60.9287 147.648 60.9093C148.563 60.9093 149.535 60.7195 150.208 60.1016C150.518 59.8189 150.752 59.4555 151.071 59.1808C151.288 58.9951 151.542 58.8537 151.748 58.6518C151.857 58.5589 151.942 58.4399 151.993 58.3058C152.044 58.1717 152.061 58.0268 152.042 57.8845Z" fill="black"/>
</g>
<path d="M123.678 73.7116L143.774 73.9741C143.815 73.9747 143.855 73.9655 143.891 73.9475C143.928 73.9295 143.96 73.903 143.984 73.8703C144.009 73.8376 144.025 73.7996 144.032 73.7594C144.039 73.7192 144.036 73.6779 144.024 73.6389L141.665 66.2726C141.665 66.2726 142.012 62.5894 142.496 58.1592C143.222 51.439 144.193 42.9864 144.205 43.0106C142.831 39.1497 134.719 38.4915 134.719 38.4915L125.476 39.0447L125.153 38.4995L122.492 39.7394C121.913 40.01 121.355 40.3246 120.823 40.6803C119.066 41.8596 114.833 44.5573 114.059 47.5701C112.277 54.5204 115.296 62.3067 115.296 62.3067L117.24 60.7883C117.729 60.41 118.243 60.0659 118.78 59.7584L122.674 70.2102C122.442 70.3576 122.246 70.5547 122.1 70.7873C121.953 71.0198 121.86 71.282 121.827 71.555C121.795 72.3991 122.23 73.4208 123.678 73.7116Z" fill="#E8505B"/>
<g opacity="0.3">
<path opacity="0.3" d="M132.293 61.386C132.93 57.9533 132.595 54.4236 132.256 50.9504C131.14 53.7774 131.18 57.0083 129.999 59.811C129.853 60.1065 129.747 60.4202 129.684 60.7439C129.654 60.9066 129.662 61.0742 129.709 61.233C129.756 61.3917 129.84 61.5369 129.954 61.6566C130.273 61.9474 130.761 61.7899 131.184 61.7374C131.567 61.6675 131.939 61.5495 132.293 61.386Z" fill="black"/>
</g>
<g opacity="0.4">
<path opacity="0.4" d="M124.891 69.3299C126.504 69.8953 128.221 68.8493 129.926 68.6635C131.055 68.5424 132.184 68.8008 133.304 68.9826C135.571 69.3505 137.876 69.4062 140.158 69.1482C140.508 69.1308 140.85 69.0429 141.166 68.8897C141.328 68.7785 141.462 68.6291 141.554 68.4545C141.646 68.28 141.694 68.0855 141.694 67.8881C137.896 67.4843 134.103 67.2622 130.305 66.8745C129.36 66.7135 128.392 66.7437 127.459 66.9633C126.314 67.3187 125.443 68.2233 124.637 69.1118" fill="black"/>
</g>
<path d="M151.466 56.5397C149.821 52.8404 144.036 42.5986 144.036 42.5986L139.557 48.2243L140.601 59.2697C140.601 59.2697 142.968 56.6245 149.583 56.572C150.064 56.5912 150.534 56.718 150.96 56.943C151.385 57.1681 151.755 57.4856 152.042 57.8724L151.466 56.5397Z" fill="#E8505B"/>
<path d="M124.569 54.5973C124.249 53.8124 123.997 53.0018 123.815 52.1742C123.561 51.3675 123.377 50.5406 123.262 49.7026C123.579 50.4883 123.832 51.2988 124.016 52.1258C124.267 52.9331 124.452 53.7598 124.569 54.5973Z" fill="#263238"/>
<path d="M139.218 47.4893C139.365 47.5919 139.5 47.7096 139.622 47.8406C139.977 48.1845 140.31 48.5515 140.617 48.9391C141.664 50.2082 142.401 51.7044 142.77 53.3088C142.961 54.1975 143.005 55.1117 142.899 56.0146C142.794 56.8223 142.637 57.5654 142.536 58.1833C142.435 58.8012 142.367 59.2939 142.335 59.6412C142.329 59.8227 142.31 60.0036 142.278 60.1824C142.247 60.0025 142.237 59.8194 142.25 59.6372C142.268 59.1423 142.313 58.6488 142.387 58.1591C142.472 57.5371 142.613 56.8062 142.706 55.9904C142.799 55.1094 142.751 54.2192 142.564 53.3532C142.205 51.7746 141.505 50.294 140.513 49.0158C139.767 48.0345 139.186 47.5175 139.218 47.4893Z" fill="#263238"/>
<path d="M135.115 72.8314C134.974 72.8916 134.826 72.935 134.675 72.9606C134.503 73.0046 134.328 73.0383 134.151 73.0616C133.945 73.0898 133.712 73.1343 133.45 73.1464C132.835 73.2026 132.217 73.2026 131.603 73.1464C130.094 73.0041 128.63 72.5489 127.306 71.8096C126.767 71.5101 126.255 71.1627 125.778 70.7717C125.592 70.6252 125.415 70.4688 125.246 70.3033C125.113 70.1762 124.988 70.0414 124.871 69.8994C124.762 69.7937 124.666 69.6758 124.585 69.5481C124.613 69.5198 125.048 70.0044 125.871 70.6344C126.352 71.0038 126.863 71.3334 127.399 71.6198C128.055 71.9667 128.74 72.2559 129.446 72.4841C130.158 72.6967 130.886 72.848 131.623 72.9364C132.226 73.0021 132.832 73.0197 133.438 72.9889C134.474 72.9445 135.106 72.791 135.115 72.8314Z" fill="#263238"/>
<path d="M141.319 70.5293C141.415 70.7116 141.468 70.9131 141.476 71.1189C141.54 71.6112 141.503 72.1115 141.367 72.589C141.226 73.0763 140.946 73.5116 140.561 73.8409C140.267 74.0873 140.041 74.164 140.029 74.1438C140.017 74.1236 140.21 73.9903 140.46 73.7399C140.786 73.3989 141.022 72.9828 141.149 72.5284C141.472 71.4824 141.242 70.5333 141.319 70.5293Z" fill="#263238"/>
<path d="M140.226 71.9509C140.314 72.3663 140.279 72.7982 140.126 73.194C139.972 73.5898 139.708 73.9324 139.364 74.1802C139.319 74.1358 139.698 73.736 139.928 73.1181C140.158 72.5002 140.166 71.9509 140.226 71.9509Z" fill="#263238"/>
<path d="M136.63 58.6599C136.418 59.0224 136.178 59.368 135.913 59.6938C135.706 60.0593 135.47 60.4077 135.207 60.7357C135.43 59.9006 135.932 59.1676 136.63 58.6599Z" fill="#263238"/>
<path d="M122.835 48.8666C122.815 48.8909 122.496 48.6324 121.944 48.273C120.509 47.3322 118.883 46.7238 117.183 46.492C116.827 46.4658 116.473 46.42 116.123 46.3547C116.48 46.3027 116.842 46.3027 117.199 46.3547C118.946 46.504 120.618 47.1282 122.037 48.1599C122.337 48.3544 122.606 48.5926 122.835 48.8666Z" fill="#263238"/>
<path d="M144.04 42.4736C143.311 43.0555 142.629 43.6943 142 44.3839C141.428 45.1206 140.917 45.9026 140.472 46.7222C140.519 46.4468 140.613 46.1816 140.75 45.9387C141.04 45.3312 141.408 44.7638 141.843 44.2506C142.274 43.7352 142.768 43.2765 143.314 42.8856C143.532 42.7091 143.777 42.5699 144.04 42.4736Z" fill="#263238"/>
<path d="M135.739 39.1458C135.776 39.2053 135.806 39.269 135.828 39.3356C135.907 39.5182 135.971 39.7074 136.018 39.901C136.187 40.6193 136.187 41.3675 136.018 42.0858C135.768 43.1617 135.193 44.1346 134.373 44.8724C133.339 45.751 132.02 46.2207 130.664 46.193C129.314 46.1904 128 45.7513 126.919 44.9411C126.051 44.2741 125.347 43.4178 124.859 42.4372C124.531 41.7822 124.3 41.0829 124.173 40.3614C124.138 40.1649 124.114 39.9668 124.101 39.7677C124.089 39.6995 124.089 39.6299 124.101 39.5617C124.121 39.5617 124.145 39.8444 124.258 40.3452C124.415 41.0478 124.663 41.7267 124.996 42.3645C125.486 43.316 126.185 44.1443 127.04 44.7876C128.09 45.5681 129.361 45.9926 130.668 45.9992C131.975 46.025 133.248 45.5776 134.252 44.7391C135.045 44.0319 135.607 43.1016 135.864 42.0697C136.044 41.3714 136.069 40.6422 135.937 39.9333C135.856 39.4163 135.715 39.174 135.739 39.1458Z" fill="#263238"/>
<g opacity="0.3">
<path opacity="0.3" d="M137.15 59.3668C137.15 59.1649 137.118 58.9266 136.941 58.8257C136.884 58.7973 136.822 58.7825 136.759 58.7825C136.696 58.7825 136.634 58.7973 136.578 58.8257C136.466 58.888 136.366 58.9701 136.284 59.068C135.811 59.5627 135.444 60.1497 135.207 60.7924L137.183 60.6228C137.171 60.223 137.162 59.7949 137.15 59.3668Z" fill="black"/>
</g>
<g opacity="0.3">
<path opacity="0.3" d="M143.709 55.215C143.51 54.0835 143.017 53.0247 142.278 52.1458C143.129 54.9404 142.843 56.5195 142.363 58.4297L142.468 58.1632C143.016 57.0445 143.863 56.3458 143.709 55.215Z" fill="black"/>
</g>
<path d="M139.763 149.095L138.557 167.208L130.696 167.115L129.459 148.283L139.763 149.095Z" fill="#FFBE9D"/>
<path d="M138.779 164.825V165.346C138.779 165.346 147.648 168.92 147.733 170.596L130.132 170.495L130.406 164.627C133.034 165.867 135.76 166.017 138.779 164.825Z" fill="#E8505B"/>
<path d="M132.18 166.521C132.013 166.573 131.871 166.683 131.779 166.831C131.687 166.98 131.652 167.157 131.68 167.329C131.725 167.5 131.833 167.648 131.983 167.742C132.133 167.836 132.313 167.869 132.486 167.834C132.665 167.78 132.819 167.662 132.915 167.501C133.012 167.341 133.046 167.15 133.01 166.966C132.946 166.791 132.817 166.649 132.65 166.568C132.483 166.487 132.291 166.475 132.115 166.534" fill="white"/>
<path d="M130.136 170.504L130.2 169.09L147.047 169.708C147.047 169.708 147.829 170.051 147.737 170.605L130.136 170.504Z" fill="#263238"/>
<path d="M138.844 165.399C138.844 165.483 138.412 165.52 137.985 165.802C137.558 166.085 137.336 166.436 137.255 166.4C137.175 166.364 137.308 165.871 137.828 165.548C138.348 165.225 138.864 165.318 138.844 165.399Z" fill="#263238"/>
<path d="M140.694 166.174C140.694 166.255 140.339 166.4 140.045 166.764C139.751 167.127 139.666 167.511 139.581 167.507C139.497 167.503 139.44 167.014 139.815 166.57C140.19 166.126 140.694 166.089 140.694 166.174Z" fill="#263238"/>
<path d="M141.722 168.408C141.641 168.428 141.524 168.004 141.75 167.527C141.976 167.051 142.375 166.869 142.411 166.941C142.448 167.014 142.198 167.265 142.008 167.652C141.819 168.04 141.807 168.383 141.722 168.408Z" fill="#263238"/>
<path d="M138.328 16.6268C138.783 15.496 138.231 14.1229 137.251 13.396C136.223 12.7157 134.969 12.469 133.76 12.7095C132.564 12.9534 131.405 13.354 130.313 13.9008C129.806 13.3903 129.167 13.0309 128.467 12.8627C127.768 12.6944 127.035 12.7239 126.352 12.9479C125.668 13.1718 125.06 13.5815 124.595 14.1312C124.13 14.6809 123.826 15.3491 123.718 16.0614C123.284 15.9516 122.829 15.962 122.4 16.0916C121.972 16.2211 121.587 16.4648 121.286 16.7967C120.986 17.1286 120.781 17.5362 120.694 17.9758C120.606 18.4153 120.64 18.8704 120.791 19.2923L126.238 21.2065L132.188 31.7068C133.067 32.4584 134.189 32.8638 135.345 32.8474C136.501 32.831 137.612 32.3938 138.469 31.6176C139.327 30.8413 139.874 29.779 140.007 28.6287C140.14 27.4784 139.852 26.3188 139.194 25.3662C139.529 25.0687 139.812 24.718 140.033 24.3283C140.508 24.0478 140.923 23.6751 141.254 23.232C141.584 22.7889 141.823 22.2843 141.956 21.7477C142.476 19.4538 140.67 16.9015 138.328 16.6268Z" fill="#263238"/>
<path d="M134.719 38.4916C134.385 36.7873 134.147 35.6162 134.151 35.6283C134.155 35.6404 137.376 34.3763 137.142 29.8774C137.033 27.6441 136.179 24.1184 135.393 21.2551C134.679 18.6826 132.285 15.8394 129.749 16.6633L122.089 20.4191C121.315 20.6655 121.182 21.3924 121.364 22.184V22.5878L124.351 34.966L125.613 40.5028C125.888 41.6316 126.574 42.6172 127.535 43.2674C128.496 43.9177 129.665 44.1861 130.813 44.0204C131.439 43.9294 132.04 43.7119 132.579 43.381C133.119 43.0502 133.585 42.6129 133.951 42.0957C134.316 41.5786 134.573 40.9924 134.705 40.3728C134.837 39.7532 134.842 39.1132 134.719 38.4916Z" fill="#FFBE9D"/>
<path d="M135.34 24.2314C135.373 24.3742 135.349 24.5239 135.274 24.6495C135.198 24.7751 135.078 24.8669 134.937 24.9059C134.868 24.9262 134.795 24.9324 134.723 24.9243C134.651 24.9162 134.581 24.8938 134.517 24.8585C134.454 24.8232 134.398 24.7756 134.353 24.7186C134.309 24.6616 134.275 24.5962 134.256 24.5262C134.225 24.383 134.249 24.2332 134.324 24.1072C134.398 23.9812 134.518 23.8885 134.659 23.8478C134.729 23.8275 134.802 23.8214 134.874 23.8298C134.947 23.8382 135.016 23.8609 135.08 23.8966C135.143 23.9323 135.199 23.9803 135.244 24.0378C135.288 24.0953 135.321 24.1611 135.34 24.2314Z" fill="#263238"/>
<path d="M135.01 23.3874C134.953 23.4763 134.47 23.2501 133.869 23.3874C133.268 23.5247 132.893 23.9084 132.813 23.8478C132.732 23.7872 132.813 23.6742 132.978 23.4965C133.197 23.2551 133.486 23.0885 133.804 23.0199C134.116 22.9536 134.44 22.9875 134.732 23.1168C134.945 23.2299 135.05 23.347 135.01 23.3874Z" fill="#263238"/>
<path d="M129.507 25.5884C129.539 25.7312 129.515 25.8809 129.44 26.0065C129.365 26.1321 129.245 26.2239 129.104 26.2629C129.033 26.2834 128.958 26.2891 128.884 26.2797C128.811 26.2703 128.74 26.2459 128.676 26.2081C128.612 26.1703 128.557 26.1198 128.513 26.0598C128.47 25.9998 128.439 25.9314 128.422 25.859C128.391 25.7163 128.416 25.567 128.491 25.4417C128.565 25.3164 128.685 25.2244 128.826 25.1846C128.897 25.164 128.972 25.1583 129.045 25.1677C129.119 25.1771 129.189 25.2015 129.253 25.2393C129.317 25.2771 129.372 25.3276 129.416 25.3876C129.46 25.4477 129.491 25.516 129.507 25.5884Z" fill="#263238"/>
<path d="M129.213 24.8129C129.16 24.8977 128.672 24.6756 128.072 24.8129C127.471 24.9502 127.096 25.3339 127.016 25.2733C126.935 25.2127 127.016 25.1037 127.185 24.9219C127.401 24.6914 127.682 24.5322 127.991 24.4656C128.303 24.3972 128.628 24.4312 128.918 24.5625C129.148 24.6352 129.241 24.7725 129.213 24.8129Z" fill="#263238"/>
<path d="M132.248 28.6092C132.543 28.4447 132.857 28.3172 133.184 28.2295C133.337 28.1811 133.474 28.1205 133.478 28.0115C133.458 27.8494 133.389 27.6973 133.28 27.5753C133.059 27.2361 132.825 26.8807 132.583 26.5051C131.607 24.9745 130.866 23.7023 130.926 23.6781C130.986 23.6539 131.829 24.8452 132.809 26.3758C133.042 26.7555 133.272 27.1149 133.486 27.4582C133.622 27.6223 133.695 27.8302 133.691 28.0438C133.68 28.1026 133.656 28.1581 133.62 28.2063C133.584 28.2545 133.539 28.2942 133.486 28.3224C133.406 28.362 133.323 28.3918 133.236 28.4113C132.916 28.5181 132.584 28.5845 132.248 28.6092Z" fill="#263238"/>
<path d="M134.151 35.6283C132.112 36.0899 129.985 35.9753 128.007 35.2971C128.007 35.2971 130.12 38.0595 134.381 36.7389L134.151 35.6283Z" fill="#EB996E"/>
<path d="M129.326 23.9567C129.285 24.1264 128.668 24.1223 127.967 24.296C127.266 24.4696 126.709 24.7362 126.6 24.5989C126.548 24.5343 126.629 24.3646 126.842 24.195C127.128 23.9583 127.465 23.7923 127.826 23.7104C128.185 23.621 128.56 23.621 128.918 23.7104C129.197 23.7589 129.342 23.8719 129.326 23.9567Z" fill="#263238"/>
<path d="M134.78 21.4771C134.687 21.6386 134.167 21.6023 133.571 21.7194C132.974 21.8365 132.506 22.0384 132.361 21.9173C132.297 21.8608 132.361 21.7073 132.534 21.5134C132.801 21.2892 133.122 21.1412 133.466 21.0854C133.805 21.0154 134.156 21.0406 134.482 21.158C134.724 21.2752 134.824 21.4044 134.78 21.4771Z" fill="#263238"/>
<path d="M123.956 17.5234C124.044 17.9613 124.228 18.3742 124.494 18.7327C124.761 19.0913 125.102 19.3867 125.495 19.598C125.888 19.8093 126.323 19.9312 126.768 19.9552C127.213 19.9791 127.659 19.9045 128.072 19.7365C128.713 19.4781 129.37 18.9894 130.015 19.2236C130.66 19.4579 130.914 20.3787 131.547 20.7341C132.45 21.2429 133.538 20.3625 134.57 20.4514C135.377 20.516 135.985 21.1379 136.61 21.6387C137.235 22.1395 138.102 22.5595 138.803 22.1799C138.642 21.5067 138.402 20.8548 138.09 20.2373C137.774 19.614 137.252 19.119 136.614 18.8359C136.25 18.7344 135.89 18.6144 135.538 18.4765C134.812 18.1009 134.486 17.265 133.954 16.6309C133.606 16.2314 133.17 15.9202 132.679 15.7229C132.188 15.5256 131.658 15.4478 131.132 15.4961C130.257 15.589 129.43 16.0292 128.552 15.9888C127.902 15.9645 127.282 15.6738 126.637 15.6859C125.371 15.6859 124.423 16.8126 123.722 17.8667" fill="#263238"/>
<path d="M128.197 18.4483C127.62 18.4079 126.431 18.2868 126.04 17.8708C125.643 17.4254 125.136 17.0927 124.57 16.9062C124.003 16.7197 123.398 16.6861 122.815 16.8087C122.236 16.9816 121.727 17.3363 121.364 17.8205C121.001 18.3047 120.803 18.8929 120.799 19.4983C120.094 19.6708 119.448 20.0308 118.93 20.5405C118.412 21.0502 118.041 21.6906 117.856 22.394C117.669 23.1297 117.662 23.9001 117.838 24.6388C118.014 25.3775 118.366 26.0624 118.864 26.6344C119.107 26.939 119.328 27.2601 119.525 27.5956C119.252 27.9353 119.012 28.3005 118.808 28.686C117.889 30.7295 120.388 31.513 120.388 31.513C120.388 32.8901 121.658 32.8821 122.468 32.878C123.279 32.874 123.726 35.0386 124.359 34.9538L123.702 28.27C123.795 28.307 123.895 28.3249 123.996 28.3225C125.524 28.3508 125.125 25.4552 124.633 24.6879C125.09 24.1259 125.475 23.5086 125.778 22.8503C126.056 21.8391 126.077 20.7741 125.838 19.7528C126.371 19.676 128.459 18.4685 128.197 18.4483Z" fill="#263238"/>
<path d="M123.932 28.6173C123.88 28.4039 123.775 28.2073 123.626 28.0457C123.478 27.8841 123.291 27.7629 123.083 27.6935C122.875 27.6241 122.653 27.6087 122.438 27.6487C122.222 27.6888 122.021 27.7831 121.851 27.9227C121.448 28.27 121.235 28.8515 121.476 29.8248C122.13 32.4256 124.601 31.2343 124.585 31.1575C124.569 31.0808 124.21 29.6915 123.932 28.6173Z" fill="#FFBE9D"/>
<path d="M123.545 30.374C123.545 30.374 123.508 30.4144 123.44 30.471C123.344 30.5442 123.224 30.5775 123.105 30.5639C122.807 30.5315 122.464 30.16 122.335 29.6875C122.274 29.4654 122.261 29.2324 122.299 29.005C122.303 28.9178 122.329 28.8329 122.373 28.7577C122.417 28.6824 122.479 28.619 122.553 28.5729C122.602 28.5467 122.658 28.5381 122.712 28.5484C122.766 28.5587 122.815 28.5873 122.851 28.6294C122.904 28.694 122.9 28.7506 122.916 28.7506C122.932 28.7506 122.96 28.694 122.916 28.5931C122.886 28.5322 122.836 28.4837 122.775 28.4557C122.733 28.4377 122.687 28.4285 122.642 28.4285C122.596 28.4285 122.551 28.4377 122.509 28.4557C122.407 28.5035 122.32 28.5765 122.255 28.6677C122.19 28.7589 122.15 28.8653 122.138 28.9767C122.082 29.2291 122.09 29.4916 122.162 29.74C122.307 30.261 122.698 30.685 123.101 30.6971C123.177 30.7027 123.254 30.6899 123.324 30.6597C123.394 30.6294 123.456 30.5827 123.504 30.5235C123.557 30.4387 123.557 30.374 123.545 30.374Z" fill="#EB996E"/>
<path d="M137.872 24.9867C137.872 24.9867 138.106 24.8049 138.436 24.3971C138.894 23.8161 139.174 23.1147 139.243 22.3778C139.291 21.8726 139.236 21.3629 139.081 20.8795C138.907 20.3274 138.589 19.8322 138.158 19.4458C137.658 19.0111 137.052 18.7156 136.402 18.5888C135.752 18.4619 135.08 18.5082 134.453 18.7229C134.332 18.7633 134.22 18.8239 134.107 18.8723C133.994 18.9208 133.893 18.9935 133.788 19.05L133.627 19.1429V18.9814C133.623 18.6674 133.507 18.3652 133.3 18.1292C133.093 17.8997 132.839 17.7178 132.555 17.5961C132.006 17.3709 131.4 17.327 130.825 17.471C129.713 17.7254 128.769 18.2342 127.878 18.3352C127.18 18.4564 126.461 18.3125 125.863 17.9313C125.705 17.8218 125.569 17.685 125.459 17.5275C125.423 17.4733 125.394 17.415 125.371 17.3538C125.518 17.5521 125.696 17.7253 125.899 17.8667C126.487 18.2071 127.179 18.3232 127.846 18.1939C128.31 18.1064 128.764 17.971 129.201 17.79C129.713 17.5834 130.238 17.4107 130.773 17.2731C131.071 17.2042 131.378 17.1743 131.684 17.1842C132.007 17.2011 132.325 17.2735 132.623 17.3983C132.932 17.5316 133.207 17.7316 133.429 17.9838C133.684 18.2547 133.83 18.6096 133.841 18.9814L133.679 18.8925C133.788 18.8279 133.897 18.7592 134.014 18.6987C134.131 18.6381 134.26 18.5816 134.389 18.5412C135.046 18.3156 135.751 18.2671 136.433 18.4003C137.115 18.5336 137.75 18.844 138.275 19.3004C138.726 19.7144 139.056 20.2435 139.231 20.831C139.381 21.3375 139.425 21.8696 139.36 22.3939C139.275 23.1547 138.962 23.8717 138.461 24.4496C138.327 24.601 138.177 24.7365 138.013 24.8534C137.97 24.902 137.923 24.9466 137.872 24.9867Z" fill="#455A64"/>
<path d="M137.324 15.8555C137.062 15.7167 136.781 15.6199 136.489 15.5687C136.155 15.5215 135.814 15.5519 135.494 15.6576C135.082 15.7873 134.724 16.0482 134.474 16.4007L134.373 16.5461L134.312 16.3845C134.102 15.8881 133.763 15.4568 133.331 15.1353C132.898 14.8137 132.388 14.6134 131.853 14.5551C131.013 14.5239 130.185 14.7631 129.491 15.2376C128.899 15.6229 128.271 15.9489 127.616 16.2109C127.164 16.3815 126.677 16.4384 126.197 16.3765C126.069 16.3557 125.943 16.3219 125.822 16.2755C125.779 16.2594 125.739 16.2377 125.701 16.2109C125.701 16.2109 125.883 16.2634 126.209 16.2957C126.673 16.325 127.138 16.2476 127.568 16.0695C128.21 15.7949 128.826 15.461 129.406 15.072C129.763 14.8508 130.141 14.6655 130.535 14.5187C130.968 14.3606 131.431 14.3012 131.889 14.3451C132.461 14.4072 133.006 14.6237 133.464 14.9715C133.923 15.3193 134.279 15.7854 134.494 16.3199H134.337C134.613 15.9378 135.011 15.6615 135.465 15.5364C135.807 15.4347 136.168 15.4167 136.517 15.4839C136.741 15.5264 136.955 15.6084 137.15 15.7262C137.267 15.7909 137.328 15.8474 137.324 15.8555Z" fill="#455A64"/>
<path d="M132.014 29.8046C131.919 29.7209 131.806 29.659 131.684 29.6235C131.563 29.5879 131.434 29.5794 131.309 29.5987C131.165 29.6272 131.028 29.6863 130.909 29.772C130.789 29.8577 130.689 29.9679 130.616 30.0954L130.591 30.1277C130.532 30.2186 130.505 30.3266 130.515 30.4347C130.533 30.5514 130.579 30.662 130.649 30.757C130.72 30.8519 130.812 30.9284 130.918 30.9799C131.088 31.0664 131.281 31.0981 131.47 31.0706C131.659 31.0432 131.835 30.9579 131.974 30.8264C132.108 30.6922 132.186 30.5126 132.193 30.3234C132.201 30.1341 132.137 29.949 132.014 29.8046Z" fill="#E8505B"/>
<path d="M132.228 31.0607C132.2 31.0607 132.16 30.9395 132.051 30.7699C131.91 30.5582 131.711 30.3914 131.478 30.2893C131.244 30.1856 130.985 30.1533 130.732 30.1964C130.535 30.2247 130.414 30.2772 130.398 30.2489C130.382 30.2206 130.483 30.1237 130.696 30.051C130.978 29.9535 131.286 29.9653 131.559 30.0843C131.832 30.2032 132.051 30.4205 132.172 30.6932C132.256 30.9153 132.228 31.0566 132.228 31.0607Z" fill="#263238"/>
<path d="M123.988 31.5572C124.008 31.5572 124.105 31.7592 123.952 32.0661C123.873 32.2235 123.744 32.3507 123.586 32.4282C123.428 32.5058 123.249 32.5294 123.077 32.4955C122.904 32.4617 122.747 32.3722 122.63 32.2407C122.513 32.1092 122.442 31.9429 122.428 31.7673C122.415 31.5677 122.474 31.3701 122.593 31.2099C122.803 30.9394 123.041 30.9353 123.037 30.9595C123.033 30.9838 122.859 31.0484 122.718 31.2907C122.637 31.4282 122.603 31.5884 122.621 31.7471C122.637 31.8391 122.672 31.9267 122.724 32.004C122.776 32.0813 122.844 32.1465 122.924 32.1953C123.002 32.2461 123.091 32.2792 123.183 32.2924C123.276 32.3056 123.37 32.2987 123.46 32.2721C123.608 32.22 123.737 32.1225 123.827 31.9934C123.901 31.8566 123.956 31.7097 123.988 31.5572Z" fill="#E8505B"/>
<path d="M122.629 31.4039C122.65 31.4039 122.629 31.5412 122.44 31.6261C122.335 31.6749 122.217 31.6863 122.105 31.6584C122.006 31.6342 121.917 31.5815 121.847 31.5067C121.778 31.432 121.732 31.3385 121.715 31.2378C121.699 31.1372 121.712 31.0338 121.753 30.9406C121.795 30.8474 121.862 30.7683 121.948 30.7133C122.113 30.6124 122.242 30.6528 122.238 30.681C122.234 30.7093 122.138 30.7335 122.037 30.8305C121.976 30.8904 121.936 30.9681 121.923 31.0522C121.909 31.1364 121.922 31.2227 121.96 31.2989C122.003 31.3719 122.068 31.4295 122.145 31.4635C122.223 31.4976 122.309 31.5064 122.392 31.4887C122.529 31.4564 122.601 31.3837 122.629 31.4039Z" fill="#E8505B"/>
<path d="M127.06 67.2702C127.06 67.2702 137.042 67.8518 142.943 67.9043C147.511 67.9487 149.551 66.729 150.462 63.789C151.232 61.3214 149.583 56.5842 149.583 56.5842C146.491 56.5842 144.584 57.0244 142.597 57.9614L143.125 60.126L127.032 61.5153L127.06 67.2702Z" fill="#FFBE9D"/>
<path d="M146.483 62.4361C146.049 61.8718 145.542 61.368 144.975 60.9378C144.369 60.5661 143.715 60.2781 143.032 60.0816C143.247 60.0503 143.466 60.0683 143.673 60.1341C144.18 60.2577 144.66 60.4711 145.092 60.7641C145.524 61.0586 145.898 61.4295 146.197 61.8586C146.333 62.0276 146.431 62.2248 146.483 62.4361Z" fill="#EB996E"/>
<path d="M123.408 57.9452C123.408 57.9452 120.32 58.6883 118.054 60.2068L120.473 66.7735C121.279 68.93 123.742 70.0043 125.713 68.8695C128.749 67.1329 129.821 62.0605 129.821 62.0605L133.155 47.5702L127.628 44.1011L123.432 57.9452" fill="#FFBE9D"/>
<path d="M127.604 44.101L127.83 39.3355L126.596 34.4893C126.528 34.2227 126.491 33.8875 126.709 33.726C126.817 33.643 126.95 33.6001 127.086 33.6046C127.222 33.609 127.353 33.6604 127.455 33.7502C127.794 34.1137 129.406 38.3663 129.406 38.3663C129.406 38.3663 131.853 36.8922 132.289 36.8235C132.724 36.7549 133.272 38.0674 133.304 38.1724C133.32 38.467 133.32 38.7622 133.304 39.0568C133.304 39.0568 134.816 39.1053 134.953 39.3113C135.063 39.7307 135.121 40.162 135.127 40.5955C135.127 40.5955 135.768 40.8015 135.868 41.2902C135.969 41.7788 136.179 42.5744 135.868 42.7481C135.558 42.9217 134.929 43.2771 134.929 43.2771C134.929 43.2771 134.675 45.7487 134.607 45.9708C134.538 46.193 133.123 47.5862 133.123 47.5862L127.604 44.101Z" fill="#FFBE9D"/>
<path d="M122.464 68.9703C122.464 68.9703 122.617 69.0551 122.928 69.1561C123.389 69.3029 123.877 69.3416 124.355 69.2692C125.12 69.1608 125.836 68.8294 126.415 68.3161C127.182 67.6181 127.83 66.7997 128.334 65.893C128.63 65.3547 128.881 64.7928 129.084 64.2129C129.294 63.5776 129.466 62.9303 129.6 62.2744C129.914 60.9121 130.254 59.4515 130.62 57.8926L133.038 47.5418V47.5136H133.059C133.337 47.243 133.615 46.9603 133.893 46.6735C134.03 46.5282 134.167 46.3828 134.296 46.2333C134.357 46.1566 134.425 46.0799 134.478 46.0031C134.53 45.9264 134.526 45.8578 134.546 45.7528C134.655 44.945 134.74 44.1091 134.828 43.269V43.2125L134.877 43.1842L135.647 42.7521C135.703 42.7198 135.792 42.6754 135.828 42.6471C135.867 42.6126 135.893 42.5654 135.901 42.5138C135.921 42.38 135.921 42.2438 135.901 42.11C135.862 41.8138 135.801 41.5209 135.719 41.2336C135.652 41.1087 135.561 40.9983 135.451 40.9089C135.341 40.8195 135.214 40.7528 135.078 40.7126L135.01 40.6884V40.6157C135.01 40.3815 134.986 40.1432 134.957 39.9049C134.946 39.7856 134.929 39.667 134.905 39.5496C134.895 39.4983 134.881 39.4482 134.861 39.4001C134.861 39.3719 134.861 39.4001 134.832 39.3759C134.812 39.365 134.79 39.3555 134.768 39.3476C134.282 39.2406 133.786 39.1838 133.288 39.178H133.184V39.073C133.184 38.8267 133.184 38.548 133.184 38.2653C133.167 38.1702 133.134 38.0787 133.087 37.9947C133.046 37.8978 132.998 37.8009 132.95 37.708C132.861 37.5139 132.755 37.3286 132.631 37.1547C132.577 37.0759 132.508 37.0075 132.43 36.9528C132.4 36.9281 132.363 36.9127 132.324 36.9084C132.286 36.9041 132.247 36.9111 132.212 36.9285C132.018 37.0037 131.828 37.09 131.644 37.187C130.894 37.5909 130.16 37.9947 129.446 38.4349L129.338 38.4995L129.293 38.3865C128.914 37.4293 128.535 36.4843 128.165 35.5595C127.979 35.095 127.798 34.6346 127.612 34.1743C127.582 34.0727 127.525 33.9813 127.447 33.9101C127.369 33.8388 127.273 33.7905 127.169 33.7704C127.072 33.7391 126.968 33.7412 126.873 33.7764C126.778 33.8115 126.698 33.8777 126.645 33.9642C126.595 34.0511 126.574 34.1514 126.584 34.251C126.584 34.3439 126.641 34.4771 126.669 34.5902L126.85 35.2849C126.971 35.7452 127.092 36.2056 127.209 36.658C127.448 37.5626 127.681 38.4511 127.907 39.3234V39.3517C127.826 41.0102 127.749 42.5986 127.677 44.1171V44.1373C126.153 49.1047 124.891 53.2241 124.004 56.1116L122.968 59.4434L122.69 60.3157C122.625 60.5136 122.585 60.6146 122.585 60.6146C122.585 60.6146 122.609 60.5096 122.662 60.3077L122.916 59.4273C123.15 58.6478 123.484 57.517 123.907 56.0833L127.511 44.0889C127.581 42.5758 127.653 40.9873 127.725 39.3234V39.3517C127.494 38.4847 127.259 37.5962 127.02 36.6862C126.899 36.2339 126.778 35.7776 126.657 35.3172L126.475 34.6185C126.437 34.4997 126.407 34.3782 126.387 34.255C126.372 34.1148 126.401 33.9735 126.471 33.8512C126.544 33.7232 126.66 33.6257 126.798 33.5765C126.93 33.5393 127.069 33.5393 127.201 33.5765C127.338 33.6042 127.465 33.6684 127.568 33.7623C127.669 33.8574 127.744 33.977 127.786 34.1096C127.971 34.57 128.152 35.0304 128.342 35.4949C128.713 36.4291 129.089 37.3714 129.471 38.3218L129.322 38.2734C130.043 37.8453 130.773 37.4172 131.535 37.0174C131.727 36.913 131.927 36.8213 132.131 36.7428C132.196 36.7198 132.265 36.7102 132.333 36.7145C132.402 36.7251 132.469 36.7513 132.526 36.7912C132.623 36.8596 132.709 36.9427 132.78 37.0376C132.915 37.2157 133.033 37.4064 133.131 37.607C133.184 37.7039 133.232 37.8049 133.276 37.9059C133.334 38.0128 133.372 38.129 133.389 38.2491C133.389 38.5359 133.389 38.8024 133.389 39.0568L133.288 38.9478C133.807 38.9525 134.323 39.0134 134.828 39.1295C134.864 39.1416 134.899 39.1565 134.933 39.174C134.975 39.1994 135.01 39.2356 135.034 39.279C135.066 39.344 135.089 39.4134 135.102 39.4849C135.131 39.6101 135.143 39.7353 135.159 39.8605C135.187 40.1069 135.203 40.3492 135.211 40.5875L135.139 40.4946C135.304 40.543 135.457 40.6246 135.589 40.7343C135.722 40.844 135.83 40.9795 135.909 41.1327C135.997 41.4382 136.062 41.7501 136.102 42.0656C136.13 42.2286 136.13 42.3952 136.102 42.5583C136.08 42.6555 136.028 42.7432 135.953 42.8087C135.887 42.8532 135.818 42.8937 135.747 42.9298L134.977 43.3619L135.03 43.2812C134.937 44.1252 134.853 44.9572 134.74 45.777L134.715 45.9304C134.706 45.9947 134.681 46.0556 134.643 46.1081C134.581 46.1944 134.514 46.2767 134.441 46.3545C134.308 46.512 134.167 46.6574 134.038 46.8028C133.756 47.0935 133.478 47.3762 133.2 47.6509L133.224 47.6024C132.337 51.3502 131.515 54.8314 130.777 57.9451C130.409 59.5013 130.063 60.9606 129.741 62.3229C129.601 62.982 129.422 63.6321 129.205 64.2695C128.998 64.8518 128.742 65.4153 128.439 65.9535C127.923 66.8705 127.259 67.696 126.475 68.3969C125.878 68.914 125.142 69.244 124.359 69.3459C123.871 69.4104 123.376 69.3593 122.912 69.1965C122.793 69.1557 122.678 69.1043 122.569 69.043L122.464 68.9703Z" fill="#EB996E"/>
<path d="M133.304 39.0366C133.304 39.0689 133.167 39.085 132.954 39.0931C132.682 39.0983 132.412 39.1308 132.147 39.19C131.893 39.2536 131.658 39.3783 131.462 39.5535C131.317 39.6908 131.253 39.8079 131.22 39.7958C131.188 39.7837 131.22 39.6424 131.353 39.4566C131.542 39.2213 131.803 39.0552 132.095 38.9841C132.378 38.9189 132.67 38.9052 132.958 38.9437C133.175 38.972 133.304 39.0083 133.304 39.0366Z" fill="#EB996E"/>
<path d="M132.123 39.0811C132.067 39.0811 132.063 38.9357 132.123 38.8024C132.184 38.6692 132.256 38.5803 132.309 38.6005C132.361 38.6207 132.369 38.7459 132.309 38.8792C132.248 39.0124 132.176 39.1013 132.123 39.0811Z" fill="#EB996E"/>
<path d="M135.195 40.5512C134.803 40.6695 134.395 40.7254 133.986 40.7168C133.858 40.7131 133.73 40.7402 133.615 40.7957C133.499 40.8512 133.398 40.9335 133.321 41.0358C133.212 41.2014 133.248 41.3387 133.216 41.3468C133.184 41.3549 133.087 41.2095 133.188 40.9712C133.243 40.8336 133.344 40.7195 133.474 40.6481C133.624 40.5697 133.789 40.5217 133.958 40.5068C134.369 40.4443 134.789 40.4594 135.195 40.5512Z" fill="#EB996E"/>
<path d="M134.925 42.001C134.982 42.001 135.018 42.3039 134.998 42.6673C134.977 43.0308 134.921 43.3297 134.865 43.3256C134.808 43.3216 134.772 43.0268 134.788 42.6593C134.804 42.2918 134.865 42.001 134.925 42.001Z" fill="#EB996E"/>
<path d="M136.602 52.8809L136.957 51.6411C136.973 51.584 137.005 51.5324 137.047 51.4912C137.09 51.45 137.143 51.4208 137.2 51.4065C137.258 51.3922 137.318 51.3933 137.375 51.4096C137.432 51.426 137.484 51.4571 137.525 51.4997L137.993 51.9763L138.283 50.8132C138.3 50.7458 138.338 50.6852 138.39 50.6398C138.443 50.5943 138.508 50.5662 138.577 50.5591C138.646 50.5521 138.716 50.5665 138.776 50.6004C138.837 50.6342 138.886 50.686 138.916 50.7486L139.577 52.1298L136.602 52.8809Z" fill="white"/>
<path d="M139.581 52.6587C139.131 52.8778 138.652 53.0328 138.158 53.1191C137.681 53.2728 137.184 53.3598 136.683 53.3776C137.134 53.1589 137.613 53.0027 138.106 52.9131C138.583 52.7597 139.08 52.6741 139.581 52.6587Z" fill="white"/>
<path d="M115.607 45.7529C115.607 45.7529 115.458 45.9104 115.248 46.2335C114.967 46.7009 114.782 47.2199 114.704 47.7601C114.589 48.5625 114.565 49.3753 114.631 50.1832C114.676 51.0959 114.748 52.1015 114.861 53.1515C115.048 54.9432 115.328 56.7239 115.7 58.4865C115.841 59.1609 115.97 59.698 116.062 60.1019C116.103 60.2675 116.135 60.4128 116.163 60.534C116.191 60.6551 116.195 60.6875 116.195 60.6875C116.195 60.6875 116.175 60.635 116.147 60.538L116.03 60.1099C115.929 59.7344 115.792 59.1892 115.627 58.4945C115.235 56.7314 114.943 54.9476 114.752 53.1515C114.639 52.0975 114.571 51.0919 114.53 50.1792C114.47 49.3707 114.499 48.5579 114.619 47.756C114.705 47.2112 114.903 46.6901 115.2 46.2254C115.315 46.0514 115.452 45.8926 115.607 45.7529Z" fill="white"/>
<path d="M124.093 40.2644L124 40.3129L123.734 40.4421C123.504 40.5511 123.17 40.7127 122.771 40.9348C121.728 41.5131 120.718 42.1467 119.743 42.8329C118.59 43.6406 117.57 44.3716 116.824 44.9047L115.941 45.5347L115.696 45.7003C115.639 45.7366 115.611 45.7568 115.607 45.7528L115.687 45.6882L115.921 45.5064L116.792 44.8603C117.526 44.311 118.542 43.5558 119.695 42.7602C120.673 42.0751 121.691 41.448 122.742 40.8823C123.145 40.6683 123.484 40.5108 123.722 40.4098L123.996 40.2967C124.026 40.2807 124.059 40.2698 124.093 40.2644Z" fill="white"/>
<path d="M143.318 42.8894C143.318 42.8894 143.294 42.8894 143.25 42.8409L143.068 42.6834C142.845 42.4922 142.609 42.3154 142.363 42.1544C141.546 41.6285 140.678 41.1887 139.771 40.8419C138.868 40.4837 137.946 40.1763 137.009 39.9211C136.65 39.8201 136.356 39.7474 136.155 39.6949L135.921 39.6384C135.893 39.6326 135.866 39.6231 135.84 39.6101C135.84 39.6101 135.868 39.6101 135.925 39.6101L136.159 39.6505C136.364 39.6909 136.663 39.7555 137.021 39.8484C137.967 40.0888 138.896 40.3897 139.803 40.749C140.714 41.1002 141.583 41.5512 142.395 42.0938C142.733 42.3211 143.043 42.5882 143.318 42.8894Z" fill="white"/>
<path d="M124.206 73.7196C124.151 73.7063 124.099 73.6873 124.048 73.6631C123.908 73.604 123.773 73.5324 123.645 73.449C123.208 73.1847 122.892 72.758 122.767 72.2617C122.656 71.7651 122.711 71.2456 122.924 70.7836C122.984 70.6395 123.063 70.5038 123.158 70.3797C123.222 70.2949 123.266 70.2545 123.27 70.2586C123.16 70.4298 123.063 70.6094 122.98 70.7957C122.789 71.2484 122.744 71.7497 122.851 72.2294C122.972 72.7059 123.267 73.1197 123.678 73.3884C123.992 73.6146 124.214 73.7035 124.206 73.7196Z" fill="white"/>
<path d="M122.924 69.3459C123.013 69.5032 123.077 69.6736 123.113 69.8508C123.177 70.0219 123.215 70.2015 123.226 70.3838C123.07 70.0564 122.968 69.7059 122.924 69.3459Z" fill="white"/>
<path d="M128.374 159.89L140.67 159.829L140.448 117.239L140.331 73.9054L123.678 73.6995L120.682 79.3534C119.457 81.6281 118.676 84.1158 118.38 86.6834C118.171 88.638 119.634 95.023 120.146 96.6465L124.73 111.222L128.374 159.89Z" fill="#263238"/>
<path d="M143.939 73.9782L157.452 110.878C158.253 113.256 158.518 115.781 158.23 118.274C157.943 120.766 157.108 123.164 155.787 125.296L140.097 155.969L131.277 144.915L144.403 117.453L132.833 98.6699L134.78 74.0348L140.23 73.95L143.939 73.9782Z" fill="#263238"/>
<path d="M139.21 86.3401C139.21 86.3401 139.21 86.4047 139.231 86.5299C139.251 86.6551 139.251 86.8489 139.263 87.0832C139.291 87.584 139.327 88.2947 139.376 89.2236C139.468 91.0935 139.597 93.7791 139.759 97.0947C139.92 100.41 140.093 104.364 140.295 108.766C140.392 110.963 140.496 113.269 140.601 115.66C140.682 116.871 140.646 118.083 140.658 119.295C140.67 120.506 140.658 121.786 140.658 123.054C140.658 133.203 140.69 142.391 140.702 149.051C140.702 152.37 140.702 155.06 140.702 156.93C140.702 157.851 140.702 158.573 140.702 159.07C140.702 159.309 140.702 159.474 140.702 159.628C140.702 159.781 140.702 159.817 140.702 159.817C140.702 159.817 140.702 159.753 140.702 159.628V159.07C140.702 158.573 140.702 157.859 140.678 156.93C140.678 155.06 140.646 152.37 140.621 149.051C140.593 142.391 140.557 133.207 140.517 123.059C140.517 121.79 140.517 120.534 140.517 119.299C140.517 118.063 140.537 116.847 140.46 115.664C140.359 113.273 140.259 110.967 140.166 108.77C139.98 104.38 139.815 100.422 139.674 97.0988C139.533 93.775 139.436 91.0975 139.36 89.2277C139.327 88.3069 139.303 87.584 139.287 87.0872C139.287 86.8489 139.287 86.6834 139.287 86.5299C139.287 86.3764 139.21 86.3401 139.21 86.3401Z" fill="#455A64"/>
<path d="M138.9 74.7131C138.948 74.8431 138.977 74.979 138.989 75.117C139.029 75.3795 139.077 75.7551 139.134 76.2236C139.239 77.1565 139.351 78.4528 139.42 79.8865C139.489 81.3202 139.485 82.6206 139.464 83.5616C139.464 84.0301 139.436 84.4097 139.416 84.6722C139.419 84.8084 139.403 84.9445 139.368 85.076C139.322 84.5712 139.304 84.0643 139.315 83.5575C139.315 82.6166 139.271 81.3202 139.21 79.8906C139.15 78.4609 139.053 77.1686 138.985 76.2316C138.928 75.7274 138.9 75.2205 138.9 74.7131Z" fill="#455A64"/>
<path d="M136.191 75.5208C136.059 75.6457 135.966 75.8053 135.921 75.9812C135.901 76.0696 135.905 76.1616 135.932 76.2481C135.959 76.3346 136.008 76.4125 136.074 76.4739C136.155 76.5461 136.254 76.5945 136.361 76.6138C136.468 76.633 136.578 76.6224 136.679 76.583C136.776 76.5335 136.857 76.4576 136.912 76.3639C136.968 76.2703 136.996 76.1629 136.993 76.0539C136.989 75.9636 136.963 75.8756 136.915 75.7986C136.868 75.7215 136.802 75.6579 136.723 75.6137C136.559 75.5342 136.376 75.5007 136.195 75.5168C136.195 75.5168 136.235 75.4643 136.34 75.436C136.491 75.3952 136.652 75.411 136.792 75.4805C136.903 75.5285 137 75.6061 137.071 75.7051C137.142 75.804 137.185 75.9204 137.195 76.0418C137.211 76.1927 137.179 76.3448 137.104 76.4767C137.029 76.6085 136.915 76.7133 136.777 76.7763C136.639 76.8393 136.485 76.8573 136.336 76.8277C136.188 76.798 136.052 76.7223 135.949 76.6112C135.864 76.5257 135.803 76.4184 135.774 76.301C135.745 76.1836 135.748 76.0605 135.784 75.9449C135.825 75.7954 135.916 75.6644 136.042 75.5734C136.126 75.5209 136.187 75.5208 136.191 75.5208Z" fill="#455A64"/>
<path d="M129.741 74.8062C129.801 74.9329 129.838 75.0698 129.85 75.21C129.917 75.5723 129.929 75.9426 129.886 76.3085C129.83 76.8552 129.673 77.3867 129.422 77.8754C129.12 78.4815 128.675 79.0046 128.126 79.3994C127.577 79.7942 126.94 80.0488 126.27 80.1411C125.733 80.2192 125.187 80.1987 124.657 80.0805C124.298 79.9963 123.953 79.8602 123.633 79.6766C123.51 79.6206 123.398 79.5426 123.303 79.4464C123.747 79.6521 124.212 79.8092 124.689 79.9149C125.263 80.035 125.855 80.0345 126.428 79.9135C127.001 79.7925 127.543 79.5536 128.02 79.212C128.496 78.8703 128.896 78.4333 129.195 77.9287C129.494 77.4241 129.686 76.8627 129.757 76.2802C129.803 75.7897 129.798 75.2956 129.741 74.8062Z" fill="#455A64"/>
<path d="M145.56 78.3479C145.298 78.3808 145.032 78.3489 144.786 78.255C144.174 78.0674 143.625 77.717 143.197 77.2413C142.767 76.7682 142.47 76.1881 142.339 75.5613C142.276 75.3039 142.276 75.0352 142.339 74.7778C142.379 74.7778 142.379 75.0767 142.5 75.525C142.666 76.1091 142.962 76.6477 143.367 77.1C143.775 77.549 144.281 77.8973 144.846 78.1177C145.265 78.2712 145.564 78.3035 145.56 78.3479Z" fill="#455A64"/>
<path d="M150.369 118.124C150.167 118.354 149.926 118.545 149.656 118.689C149.373 118.87 149.065 119.007 148.74 119.093C148.333 119.201 147.904 119.19 147.503 119.06C146.8 118.792 146.198 118.312 145.777 117.687C145.585 117.451 145.426 117.188 145.306 116.908C145.523 117.118 145.72 117.348 145.894 117.595C146.324 118.163 146.904 118.601 147.567 118.859C147.906 118.95 148.259 118.97 148.606 118.919C148.953 118.868 149.285 118.745 149.583 118.56C149.837 118.4 150.099 118.255 150.369 118.124Z" fill="#455A64"/>
<path d="M147.285 120.478C146.379 119.45 145.583 118.329 144.911 117.134C145.811 118.167 146.607 119.287 147.285 120.478Z" fill="#455A64"/>
<path d="M126.625 87.7699C126.568 87.7942 126.427 87.5599 126.302 87.253C126.177 86.9461 126.125 86.6755 126.177 86.6553C126.229 86.6351 126.375 86.8653 126.5 87.1722C126.625 87.4792 126.677 87.7497 126.625 87.7699Z" fill="#FAFAFA"/>
<path d="M134.429 88.8886C134.373 88.8886 134.324 88.6907 134.324 88.4403C134.324 88.19 134.373 87.9961 134.429 87.9961C134.486 87.9961 134.534 88.194 134.534 88.4403C134.534 88.6867 134.486 88.8886 134.429 88.8886Z" fill="#FAFAFA"/>
<path d="M131.22 93.133C131.164 93.133 131.099 92.8907 131.079 92.5838C131.059 92.2768 131.079 92.0224 131.144 92.0184C131.208 92.0143 131.269 92.2607 131.289 92.5676C131.309 92.8745 131.281 93.129 131.22 93.133Z" fill="#FAFAFA"/>
<path d="M125.375 96.2629C125.326 96.2952 125.161 96.1498 124.943 95.9923C124.726 95.8348 124.54 95.7217 124.54 95.6652C124.54 95.6087 124.81 95.6652 125.052 95.8227C125.294 95.9802 125.407 96.2306 125.375 96.2629Z" fill="#FAFAFA"/>
<path d="M135.691 100.209C135.643 100.176 135.691 99.9986 135.828 99.8047C135.965 99.6109 136.09 99.4938 136.139 99.5261C136.187 99.5584 136.138 99.7361 136.001 99.9299C135.864 100.124 135.739 100.241 135.691 100.209Z" fill="#FAFAFA"/>
<path d="M129.301 101.327C129.241 101.327 129.192 100.992 129.192 100.58C129.192 100.168 129.241 99.8369 129.301 99.8369C129.362 99.8369 129.406 100.168 129.406 100.58C129.406 100.992 129.358 101.327 129.301 101.327Z" fill="#FAFAFA"/>
<path d="M127.225 105.854C127.193 105.903 126.983 105.806 126.758 105.644C126.532 105.483 126.375 105.309 126.411 105.261C126.447 105.212 126.653 105.309 126.878 105.475C127.104 105.64 127.261 105.81 127.225 105.854Z" fill="#FAFAFA"/>
<path d="M133.687 107.425C133.708 107.478 133.579 107.587 133.393 107.668C133.208 107.748 133.038 107.777 133.018 107.724C132.998 107.672 133.123 107.559 133.308 107.478C133.494 107.397 133.663 107.381 133.687 107.425Z" fill="#FAFAFA"/>
<path d="M129.301 114.804C129.249 114.832 129.039 114.517 128.834 114.109C128.628 113.701 128.503 113.342 128.556 113.302C128.608 113.261 128.818 113.584 129.023 113.996C129.179 114.239 129.275 114.516 129.301 114.804Z" fill="#FAFAFA"/>
<path d="M136.437 114.134C136.384 114.109 136.477 113.835 136.642 113.528C136.808 113.221 136.981 112.991 137.046 113.019C137.11 113.047 137.005 113.318 136.844 113.625C136.683 113.932 136.485 114.162 136.437 114.134Z" fill="#FAFAFA"/>
<path d="M133.313 120.389C133.256 120.389 133.26 120.062 133.196 119.682C133.131 119.303 133.038 119.004 133.091 118.976C133.143 118.947 133.341 119.234 133.405 119.65C133.47 120.066 133.369 120.401 133.313 120.389Z" fill="#FAFAFA"/>
<path d="M129.967 123.983C129.926 124.02 129.725 123.87 129.519 123.644C129.313 123.418 129.18 123.2 129.225 123.164C129.269 123.127 129.471 123.277 129.676 123.503C129.882 123.729 130.011 123.927 129.967 123.983Z" fill="#FAFAFA"/>
<path d="M138.09 125.32C138.045 125.28 138.194 125.062 138.42 124.836C138.646 124.61 138.86 124.456 138.9 124.496C138.94 124.537 138.791 124.755 138.569 124.985C138.348 125.215 138.13 125.365 138.09 125.32Z" fill="#FAFAFA"/>
<path d="M133.437 130.671C133.381 130.671 133.381 130.356 133.437 129.985C133.494 129.613 133.583 129.322 133.643 129.33C133.704 129.339 133.7 129.645 133.643 130.017C133.587 130.389 133.474 130.683 133.437 130.671Z" fill="#FAFAFA"/>
<path d="M130.277 133.272C130.225 133.304 130.051 133.094 129.874 132.808C129.696 132.521 129.612 132.266 129.66 132.238C129.708 132.21 129.89 132.416 130.063 132.703C130.237 132.989 130.325 133.24 130.277 133.272Z" fill="#FAFAFA"/>
<path d="M137.844 136.547C137.88 136.596 137.674 136.798 137.388 137.004C137.102 137.21 136.84 137.339 136.804 137.294C136.767 137.25 136.977 137.04 137.263 136.834C137.549 136.628 137.812 136.503 137.844 136.547Z" fill="#FAFAFA"/>
<path d="M131.539 140.8C131.482 140.78 131.539 140.453 131.591 140.053C131.644 139.653 131.611 139.318 131.672 139.31C131.732 139.302 131.837 139.637 131.801 140.073C131.764 140.509 131.591 140.82 131.539 140.8Z" fill="#FAFAFA"/>
<path d="M134.058 146.902C134.01 146.939 133.841 146.801 133.679 146.595C133.518 146.389 133.417 146.191 133.462 146.159C133.506 146.127 133.679 146.26 133.841 146.466C134.002 146.672 134.103 146.866 134.058 146.902Z" fill="#FAFAFA"/>
<path d="M131.305 151.001C131.261 151.034 131.039 150.791 130.813 150.464C130.587 150.137 130.442 149.842 130.491 149.806C130.539 149.769 130.757 150.016 130.982 150.343C131.208 150.67 131.353 150.965 131.305 151.001Z" fill="#FAFAFA"/>
<path d="M138.888 145.86C138.835 145.84 138.839 145.691 138.888 145.525C138.936 145.359 139.041 145.246 139.098 145.266C139.154 145.287 139.146 145.436 139.098 145.602C139.049 145.767 138.944 145.88 138.888 145.86Z" fill="#FAFAFA"/>
<path d="M135.546 155.617C135.489 155.589 135.59 155.302 135.671 154.943C135.751 154.584 135.78 154.281 135.84 154.277C135.901 154.273 135.961 154.596 135.876 154.987C135.792 155.379 135.594 155.646 135.546 155.617Z" fill="#FAFAFA"/>
<path d="M137.719 93.2017C137.666 93.226 137.537 93.0604 137.433 92.8383C137.328 92.6161 137.283 92.4102 137.336 92.386C137.388 92.3617 137.517 92.5233 137.622 92.7494C137.727 92.9756 137.771 93.1735 137.719 93.2017Z" fill="#FAFAFA"/>
<path d="M132.123 80.6215C132.156 80.674 131.873 80.9002 131.571 81.2233C131.269 81.5464 131.063 81.8412 131.011 81.8129C130.958 81.7846 131.095 81.4091 131.414 81.0779C131.732 80.7467 132.095 80.5731 132.123 80.6215Z" fill="#FAFAFA"/>
<path d="M137.106 80.4722C137.046 80.4722 136.953 80.246 136.812 79.9674C136.671 79.6887 136.542 79.4706 136.586 79.4302C136.63 79.3899 136.848 79.5676 136.989 79.8745C137.13 80.1814 137.162 80.4641 137.106 80.4722Z" fill="#FAFAFA"/>
<path d="M121.585 84.5752C121.533 84.5752 121.585 84.2885 121.71 83.9775C121.835 83.6666 121.976 83.4364 122.029 83.4566C122.081 83.4767 122.029 83.7473 121.904 84.0543C121.779 84.3612 121.642 84.5995 121.585 84.5752Z" fill="#FAFAFA"/>
<path d="M122.089 90.6775C122.053 90.722 121.823 90.5887 121.573 90.3827C121.323 90.1768 121.17 89.9789 121.194 89.9304C121.219 89.882 121.464 90.0193 121.71 90.2212C121.956 90.4231 122.126 90.6331 122.089 90.6775Z" fill="#FAFAFA"/>
<path d="M132.272 75.7835C132.22 75.7835 132.107 75.6543 132.027 75.4483C131.946 75.2423 131.922 75.0444 131.974 75.0444C132.027 75.0444 132.139 75.1737 132.22 75.3796C132.301 75.5856 132.325 75.7592 132.272 75.7835Z" fill="#FAFAFA"/>
<path d="M142.024 78.7516C141.968 78.7516 141.972 78.4972 142.024 78.2064C142.077 77.9157 142.181 77.6976 142.238 77.7097C142.294 77.7218 142.29 77.9641 142.238 78.2509C142.186 78.5376 142.081 78.7759 142.024 78.7516Z" fill="#FAFAFA"/>
<path d="M144.322 83.376C144.266 83.376 144.322 83.0529 144.483 82.7056C144.645 82.3583 144.786 82.0917 144.842 82.1119C144.899 82.1321 144.842 82.435 144.677 82.7864C144.512 83.1377 144.37 83.4002 144.322 83.376Z" fill="#FAFAFA"/>
<path d="M142.681 87.1035C142.629 87.1277 142.435 86.8491 142.254 86.4775C142.073 86.106 141.96 85.7869 142.012 85.7627C142.065 85.7385 142.254 86.0131 142.439 86.3846C142.625 86.7562 142.734 87.0752 142.681 87.1035Z" fill="#FAFAFA"/>
<path d="M146.177 90.8271C146.12 90.8029 146.177 90.5727 146.261 90.3021C146.346 90.0316 146.491 89.8377 146.547 89.8579C146.604 89.8781 146.547 90.1123 146.459 90.3789C146.37 90.6454 146.229 90.8675 146.177 90.8271Z" fill="#FAFAFA"/>
<path d="M143.052 94.4737C143.004 94.5061 142.879 94.397 142.778 94.2314C142.677 94.0658 142.633 93.9083 142.681 93.8801C142.73 93.8518 142.855 93.9568 142.956 94.1224C143.056 94.288 143.113 94.4455 143.052 94.4737Z" fill="#FAFAFA"/>
<path d="M143.717 101.998C143.677 102.038 143.427 101.836 143.157 101.549C142.887 101.263 142.71 100.996 142.754 100.956C142.798 100.915 143.044 101.117 143.314 101.404C143.584 101.691 143.762 101.957 143.717 101.998Z" fill="#FAFAFA"/>
<path d="M147.809 97.6765C147.765 97.7128 147.543 97.5068 147.317 97.2201C147.092 96.9334 146.947 96.6709 146.991 96.6345C147.035 96.5982 147.257 96.8042 147.483 97.0909C147.708 97.3776 147.858 97.6401 147.809 97.6765Z" fill="#FAFAFA"/>
<path d="M150.055 103.641C150.002 103.617 150.095 103.314 150.26 102.963C150.426 102.612 150.599 102.353 150.663 102.377C150.728 102.402 150.627 102.704 150.462 103.056C150.297 103.407 150.107 103.666 150.055 103.641Z" fill="#FAFAFA"/>
<path d="M145.282 108.548C145.233 108.58 145.044 108.358 144.786 108.12C144.528 107.882 144.29 107.716 144.318 107.656C144.346 107.595 144.645 107.7 144.927 107.963C145.209 108.225 145.33 108.524 145.282 108.548Z" fill="#FAFAFA"/>
<path d="M145.58 113.613C145.58 113.673 145.378 113.718 145.132 113.718C144.887 113.718 144.689 113.673 144.689 113.613C144.689 113.552 144.887 113.508 145.132 113.508C145.378 113.508 145.58 113.556 145.58 113.613Z" fill="#FAFAFA"/>
<path d="M150.486 112.199C150.434 112.167 150.538 111.916 150.615 111.597C150.692 111.278 150.724 111.012 150.784 111.008C150.845 111.004 150.909 111.294 150.821 111.65C150.732 112.005 150.534 112.231 150.486 112.199Z" fill="#FAFAFA"/>
<path d="M155.36 113.887C155.308 113.907 155.158 113.625 155.029 113.257C154.9 112.89 154.84 112.575 154.892 112.554C154.945 112.534 155.098 112.821 155.227 113.189C155.356 113.556 155.416 113.887 155.36 113.887Z" fill="#FAFAFA"/>
<path d="M154.586 120.841C154.534 120.817 154.658 120.478 154.86 120.086C155.062 119.694 155.263 119.4 155.324 119.428C155.384 119.456 155.251 119.791 155.05 120.183C154.848 120.575 154.634 120.87 154.586 120.841Z" fill="#FAFAFA"/>
<path d="M150.135 124.924C150.083 124.949 149.918 124.666 149.764 124.298C149.611 123.931 149.535 123.616 149.591 123.596C149.648 123.576 149.809 123.854 149.962 124.222C150.115 124.589 150.188 124.904 150.135 124.924Z" fill="#FAFAFA"/>
<path d="M145.209 126.5C145.209 126.556 145.044 126.605 144.838 126.605C144.633 126.605 144.463 126.556 144.463 126.5C144.463 126.443 144.633 126.395 144.838 126.395C145.044 126.395 145.209 126.439 145.209 126.5Z" fill="#FAFAFA"/>
<path d="M148.035 132.977C147.979 132.977 147.866 132.755 147.785 132.444C147.704 132.133 147.68 131.875 147.737 131.859C147.793 131.843 147.902 132.081 147.987 132.392C148.071 132.703 148.087 132.961 148.035 132.977Z" fill="#FAFAFA"/>
<path d="M144.463 130.817C144.415 130.788 144.463 130.594 144.596 130.393C144.729 130.191 144.862 130.041 144.911 130.073C144.959 130.106 144.911 130.292 144.778 130.498C144.645 130.703 144.516 130.849 144.463 130.817Z" fill="#FAFAFA"/>
<path d="M144.391 137.965C144.334 137.965 144.254 137.694 144.213 137.347C144.173 137 144.185 136.709 144.241 136.701C144.298 136.693 144.379 136.971 144.419 137.323C144.459 137.674 144.447 137.961 144.391 137.965Z" fill="#FAFAFA"/>
</g>
<defs>
<clipPath id="clip0_1542_8739">
<rect width="178" height="171" fill="white"/>
</clipPath>
</defs>
</svg>
